<svg version="1.1" viewBox="0.0 0.0 523.0 323.0" fill="none" stroke="none" stroke-linecap="square" stroke-miterlimit="10" width="523" height="323" xmlns:xlink="http://www.w3.org/1999/xlink" xmlns="http://www.w3.org/2000/svg"><path fill="#ffffff" d="M0 0L523.0 0L523.0 323.0L0 323.0L0 0Z" fill-rule="nonzero"/><path fill="#171616" d="M261.5 124.4975C272.19086 124.4975 282.71133 126.37269 292.10028 129.95175L292.10028 149.14676C282.71133 145.56769 272.19086 143.6925 261.5 143.6925Z" fill-rule="nonzero"/><path fill="#211f20" d="M261.5 79.70917C282.88174 79.70917 303.92267 83.45954 322.70056 90.617676L292.10028 129.95175C282.71133 126.37269 272.19086 124.4975 261.5 124.4975Z" fill-rule="nonzero"/><path fill="#6d1b10" d="M292.10028 129.95175C305.31107 134.9877 315.5647 143.12085 321.0604 152.92282L321.0604 172.11781C315.5647 162.31586 305.31107 154.1827 292.10028 149.14676Z" fill-rule="nonzero"/><path fill="#9c2717" d="M322.70056 90.617676C349.12213 100.68956 369.62943 116.95587 380.62082 136.5598L321.0604 152.92282C315.5647 143.12085 305.31107 134.9877 292.10028 129.95175Z" fill-rule="nonzero"/><path fill="#b08403" d="M321.0604 152.92282C322.6159 155.69719 323.77194 158.5733 324.5113 161.50842L324.5113 180.70341C323.77194 177.76831 322.6159 174.89218 321.0604 172.11781Z" fill-rule="nonzero"/><path fill="#fbbc04" d="M380.62082 136.5598C383.73184 142.10854 386.04388 147.86078 387.52255 153.731L324.5113 161.50842C323.77194 158.5733 322.6159 155.69719 321.0604 152.92282Z" fill-rule="nonzero"/><path fill="#003b80" d="M389.46667 188.48083C389.46667 192.20444 389.13498 195.92442 388.47354 199.61913L388.47354 180.42413C389.13498 176.72942 389.46667 173.00945 389.46667 169.28583Z" fill-rule="nonzero"/><path fill="#003b80" d="M324.5113 161.50842C325.15808 164.07614 325.48334 166.6785 325.48334 169.28583L325.48334 188.48083C325.48334 185.8735 325.15808 183.27115 324.5113 180.70341Z" fill-rule="nonzero"/><path fill="#0054b7" d="M387.52255 153.731C389.7429 162.54549 390.06345 171.54314 388.47354 180.42413L324.9868 174.85498C325.78174 170.41449 325.62146 165.91566 324.5113 161.50842Z" fill-rule="nonzero"/><path fill="#003563" d="M388.47354 199.61913C385.81485 214.47018 377.88245 228.6182 365.401 240.77065L365.401 221.57565C377.88245 209.42319 385.81485 195.27519 388.47354 180.42413Z" fill-rule="nonzero"/><path fill="#004b8d" d="M388.47354 180.42413C385.81485 195.27519 377.88245 209.42319 365.401 221.57565L313.4505 195.43074C319.69122 189.3545 323.65744 182.28052 324.9868 174.85498Z" fill-rule="nonzero"/><path fill="#466c93" d="M365.401 240.77065C362.91714 243.18903 360.2625 245.5192 357.447 247.75244L357.447 228.55745C360.2625 226.32419 362.91714 223.99403 365.401 221.57565Z" fill-rule="nonzero"/><path fill="#649ad2" d="M365.401 221.57565C362.91714 223.99403 360.2625 226.32419 357.447 228.55745L309.4735 198.92165C310.88126 197.80501 312.20856 196.63994 313.4505 195.43074Z" fill-rule="nonzero"/><path fill="#3f464d" d="M357.447 247.75244C351.81247 252.22173 345.55475 256.28616 338.76685 259.8853L338.76685 240.6903C345.55475 237.09116 351.81247 233.02673 357.447 228.55745Z" fill-rule="nonzero"/><path fill="#5a646e" d="M357.447 228.55745C351.81247 233.02673 345.55475 237.09116 338.76685 240.6903L300.13342 204.98807C303.52737 203.18849 306.65625 201.15628 309.4735 198.92165Z" fill-rule="nonzero"/><path fill="#820821" d="M338.76685 259.8853C335.375 261.68375 331.85712 263.36267 328.22632 264.91577L328.22632 245.72078C331.85712 244.16768 335.375 242.48875 338.76685 240.6903Z" fill-rule="nonzero"/><path fill="#ba0c2f" d="M338.76685 240.6903C335.375 242.48875 331.85712 244.16768 328.22632 245.72078L294.86316 207.50331C296.67856 206.72675 298.4375 205.8873 300.13342 204.98807Z" fill-rule="nonzero"/><path fill="#0b3966" d="M255.12932 124.72006C257.24628 124.57178 259.37247 124.4975 261.5 124.4975L261.5 143.6925C259.37247 143.6925 257.24628 143.76678 255.12932 143.91507Z" fill-rule="nonzero"/><path fill="#0f5191" d="M248.75864 80.1543C252.99254 79.85773 257.24493 79.70917 261.5 79.70917L261.5 124.4975C259.37247 124.4975 257.24628 124.57178 255.12932 124.72006Z" fill-rule="nonzero"/><path fill="#999898" d="M248.82195 125.385544C250.90729 125.09045 253.01236 124.86835 255.12932 124.72006L255.12932 143.91507C253.01236 144.06334 250.90729 144.28545 248.82195 144.58054Z" fill-rule="nonzero"/><path fill="#dbd9d9" d="M236.1439 81.48525C240.31459 80.895065 244.52472 80.45086 248.75864 80.1543L255.12932 124.72006C253.01236 124.86835 250.90729 125.09045 248.82195 125.385544Z" fill-rule="nonzero"/><path fill="#641aa0" d="M157.599 240.77065C141.95122 225.53534 133.53334 207.24496 133.53334 188.48083L133.53334 169.28583C133.53334 188.04997 141.95122 206.34033 157.599 221.57565Z" fill-rule="nonzero"/><path fill="#641aa0" d="M197.51666 169.28583C197.51666 147.97095 218.97585 129.60901 248.82195 125.385544L248.82195 144.58054C218.97585 148.804 197.51666 167.16594 197.51666 188.48083Z" fill-rule="nonzero"/><path fill="#8f25e5" d="M157.599 221.57565C132.23781 196.88297 126.506676 164.86957 142.3792 136.5598C158.25171 108.250046 193.55957 87.51128 236.1439 81.48525L248.82195 125.385544C227.52979 128.39856 209.87585 138.76794 201.93959 152.92282C194.00334 167.0777 196.86891 183.0844 209.5495 195.43074Z" fill-rule="nonzero"/><path fill="#a54e00" d="M165.553 247.75244C162.73749 245.5192 160.08286 243.18903 157.599 240.77065L157.599 221.57565C160.08286 223.99403 162.73749 226.32419 165.553 228.55745Z" fill-rule="nonzero"/><path fill="#ec7000" d="M165.553 228.55745C162.73749 226.32419 160.08286 223.99403 157.599 221.57565L209.5495 195.43074C210.79143 196.63994 212.11874 197.80501 213.5265 198.92165Z" fill-rule="nonzero"/><path fill="#8f0000" d="M174.46056 254.14517C171.34138 252.11926 168.3685 249.9857 165.553 247.75244L165.553 228.55745C168.3685 230.7907 171.34138 232.92426 174.46056 234.95018Z" fill-rule="nonzero"/><path fill="#cc0000" d="M174.46056 234.95018C171.34138 232.92426 168.3685 230.7907 165.553 228.55745L213.5265 198.92165C214.93425 200.03827 216.4207 201.10504 217.98029 202.11801Z" fill-rule="nonzero"/><path fill="#060f72" d="M184.23317 259.8853C180.84132 258.08685 177.57974 256.17108 174.46056 254.14517L174.46056 234.95018C177.57974 236.97609 180.84132 238.89185 184.23317 240.6903Z" fill-rule="nonzero"/><path fill="#0916a3" d="M184.23317 240.6903C180.84132 238.89185 177.57974 236.97609 174.46056 234.95018L217.98029 202.11801C219.53987 203.13097 221.17065 204.08884 222.86658 204.98807Z" fill-rule="nonzero"/><path fill="#a0102c" d="M205.97734 269.1866C198.30524 266.60034 191.02107 263.48447 184.23317 259.8853L184.23317 240.6903C191.02107 244.28946 198.30524 247.40533 205.97734 249.99162Z" fill-rule="nonzero"/><path fill="#e5173f" d="M205.97734 249.99162C198.30524 247.40533 191.02107 244.28946 184.23317 240.6903L222.86658 204.98807C226.26053 206.78764 229.90262 208.34558 233.73868 209.63873Z" fill-rule="nonzero"/><path fill="#0b3e6a" d="M328.22632 264.91577C291.15445 280.77368 245.12062 282.3819 205.97734 269.1866L205.97734 249.99162C245.12062 263.18692 291.15445 261.57867 328.22632 245.72078Z" fill-rule="nonzero"/><path fill="#0f5998" d="M328.22632 245.72078C291.15445 261.57867 245.12062 263.18692 205.97734 249.99162L233.73868 209.63873C253.3103 216.23637 276.32724 215.43227 294.86316 207.50331Z" fill-rule="nonzero"/><path fill="#1a1a1a" d="M16.8375 79.793785L16.8375 72.637535L18.275 72.637535L18.275 79.793785L16.8375 79.793785ZM21.49375 79.793785L21.49375 73.84066L19.36875 73.84066L19.36875 72.637535L25.05625 72.637535L25.05625 73.84066L22.93125 73.84066L22.93125 79.793785L21.49375 79.793785ZM25.509375 77.46566L26.915625 77.325035Q27.040625 78.02816 27.43125 78.37191Q27.821875 78.700035 28.478125 78.700035Q29.18125 78.700035 29.525 78.40316Q29.884375 78.106285 29.884375 77.71566Q29.884375 77.46566 29.728125 77.293785Q29.5875 77.106285 29.2125 76.96566Q28.9625 76.887535 28.05625 76.65316Q26.9 76.37191 26.43125 75.950035Q25.775 75.356285 25.775 74.512535Q25.775 73.96566 26.071875 73.49691Q26.384375 73.012535 26.9625 72.762535Q27.55625 72.512535 28.384375 72.512535Q29.728125 72.512535 30.4 73.106285Q31.0875 73.700035 31.134375 74.68441L29.68125 74.74691Q29.5875 74.200035 29.275 73.96566Q28.978125 73.71566 28.36875 73.71566Q27.74375 73.71566 27.384375 73.96566Q27.15 74.137535 27.15 74.418785Q27.15 74.668785 27.36875 74.84066Q27.634375 75.075035 28.68125 75.325035Q29.74375 75.575035 30.24375 75.84066Q30.759375 76.106285 31.040625 76.575035Q31.3375 77.02816 31.3375 77.71566Q31.3375 78.325035 30.99375 78.87191Q30.65 79.40316 30.025 79.668785Q29.4 79.918785 28.4625 79.918785Q27.103125 79.918785 26.36875 79.293785Q25.65 78.668785 25.509375 77.46566ZM39.3375 79.793785L37.759377 79.793785L37.134377 78.168785L34.275 78.168785L33.68125 79.793785L32.15 79.793785L34.93125 72.637535L36.4625 72.637535L39.3375 79.793785ZM36.665627 76.96566L35.68125 74.30941L34.7125 76.96566L36.665627 76.96566ZM39.525 77.887535L40.853127 77.731285Q40.915627 78.24691 41.196877 78.512535Q41.478127 78.77816 41.86875 78.77816Q42.290627 78.77816 42.571877 78.46566Q42.86875 78.137535 42.86875 77.59066Q42.86875 77.075035 42.5875 76.77816Q42.321877 76.46566 41.915627 76.46566Q41.65 76.46566 41.290627 76.55941L41.446877 75.450035Q41.99375 75.46566 42.290627 75.21566Q42.5875 74.950035 42.5875 74.52816Q42.5875 74.168785 42.36875 73.950035Q42.15 73.731285 41.790627 73.731285Q41.446877 73.731285 41.196877 73.981285Q40.946877 74.21566 40.9 74.68441L39.634377 74.481285Q39.759377 73.825035 40.025 73.43441Q40.290627 73.043785 40.759377 72.825035Q41.24375 72.606285 41.8375 72.606285Q42.853127 72.606285 43.4625 73.24691Q43.9625 73.77816 43.9625 74.43441Q43.9625 75.387535 42.93125 75.950035Q43.540627 76.075035 43.9 76.543785Q44.275 76.99691 44.275 77.637535Q44.275 78.59066 43.5875 79.262535Q42.9 79.918785 41.884377 79.918785Q40.915627 79.918785 40.275 79.356285Q39.634377 78.793785 39.525 77.887535Z" fill-rule="nonzero"/><path fill="#9e9e9e" d="M20.0875 95.793785L18.7125 95.793785L18.7125 90.62191Q17.9625 91.325035 16.946875 91.668785L16.946875 90.418785Q17.478125 90.24691 18.103125 89.762535Q18.74375 89.262535 18.978125 88.606285L20.0875 88.606285L20.0875 95.793785ZM22.8375 94.418785L24.2125 94.418785L24.2125 95.40316Q24.2125 95.99691 24.103125 96.34066Q23.99375 96.68441 23.7125 96.950035Q23.43125 97.231285 22.99375 97.387535L22.728125 96.825035Q23.134375 96.68441 23.30625 96.450035Q23.49375 96.21566 23.49375 95.793785L22.8375 95.793785L22.8375 94.418785ZM30.228125 90.387535L28.9 90.52816Q28.853125 90.12191 28.634375 89.93441Q28.43125 89.731285 28.103125 89.731285Q27.68125 89.731285 27.36875 90.12191Q27.071875 90.512535 26.99375 91.74691Q27.509375 91.137535 28.275 91.137535Q29.134375 91.137535 29.74375 91.793785Q30.353125 92.450035 30.353125 93.481285Q30.353125 94.59066 29.7125 95.262535Q29.071875 95.918785 28.05625 95.918785Q26.978125 95.918785 26.275 95.075035Q25.571875 94.231285 25.571875 92.30941Q25.571875 90.34066 26.290625 89.481285Q27.025 88.606285 28.196875 88.606285Q29.009375 88.606285 29.540625 89.05941Q30.071875 89.512535 30.228125 90.387535ZM27.11875 93.387535Q27.11875 94.043785 27.415625 94.418785Q27.728125 94.77816 28.11875 94.77816Q28.509375 94.77816 28.759375 94.481285Q29.009375 94.18441 29.009375 93.49691Q29.009375 92.80941 28.728125 92.481285Q28.4625 92.15316 28.05625 92.15316Q27.665625 92.15316 27.384375 92.46566Q27.11875 92.77816 27.11875 93.387535ZM31.5875 90.40316Q31.5875 89.43441 32.009377 88.981285Q32.43125 88.512535 33.15 88.512535Q33.9 88.512535 34.321877 88.981285Q34.74375 89.43441 34.74375 90.40316Q34.74375 91.37191 34.321877 91.84066Q33.9 92.293785 33.18125 92.293785Q32.43125 92.293785 32.009377 91.84066Q31.5875 91.37191 31.5875 90.40316ZM32.65 90.387535Q32.65 91.09066 32.821877 91.325035Q32.93125 91.512535 33.15 91.512535Q33.36875 91.512535 33.49375 91.325035Q33.65 91.09066 33.65 90.387535Q33.65 89.700035 33.49375 89.46566Q33.36875 89.27816 33.15 89.27816Q32.93125 89.27816 32.821877 89.450035Q32.65 89.700035 32.65 90.387535ZM34.196877 96.075035L33.18125 96.075035L36.99375 88.512535L37.978127 88.512535L34.196877 96.075035ZM36.415627 94.18441Q36.415627 93.231285 36.8375 92.762535Q37.259377 92.293785 37.99375 92.293785Q38.728127 92.293785 39.15 92.762535Q39.571877 93.231285 39.571877 94.18441Q39.571877 95.15316 39.15 95.62191Q38.728127 96.075035 38.009377 96.075035Q37.259377 96.075035 36.8375 95.62191Q36.415627 95.15316 36.415627 94.18441ZM37.478127 94.18441Q37.478127 94.887535 37.65 95.12191Q37.759377 95.293785 37.978127 95.293785Q38.196877 95.293785 38.321877 95.12191Q38.478127 94.887535 38.478127 94.18441Q38.478127 93.481285 38.321877 93.24691Q38.196877 93.075035 37.978127 93.075035Q37.759377 93.075035 37.65 93.24691Q37.478127 93.481285 37.478127 94.18441Z" fill-rule="nonzero"/><path stroke="#757575" stroke-width="1.0" stroke-linecap="butt" d="M16.15 84.293785L127.53333 84.293785L255.44032 84.293785" fill-rule="nonzero"/><path fill="#9e9e9e" d="M257.4403 84.293785C257.4403 83.18922 256.5449 82.293785 255.44032 82.293785C254.33575 82.293785 253.44032 83.18922 253.44032 84.293785C253.44032 85.39835 254.33575 86.293785 255.44032 86.293785C256.5449 86.293785 257.4403 85.39835 257.4403 84.293785" fill-rule="nonzero"/><path fill="#1a1a1a" d="M16.5875 130.16486Q16.5875 129.0711 16.915625 128.3211Q17.15 127.77423 17.571875 127.352356Q17.99375 126.914856 18.509375 126.696106Q19.165625 126.414856 20.040625 126.414856Q21.634375 126.414856 22.571875 127.39923Q23.525 128.3836 23.525 130.1336Q23.525 131.85236 22.5875 132.83673Q21.65 133.8211 20.071875 133.8211Q18.4625 133.8211 17.525 132.85236Q16.5875 131.86798 16.5875 130.16486ZM18.071875 130.11798Q18.071875 131.3211 18.634375 131.96173Q19.196875 132.58673 20.05625 132.58673Q20.93125 132.58673 21.478125 131.96173Q22.040625 131.33673 22.040625 130.08673Q22.040625 128.86798 21.49375 128.2586Q20.9625 127.64923 20.05625 127.64923Q19.165625 127.64923 18.61875 128.27423Q18.071875 128.8836 18.071875 130.11798ZM24.8375 133.6961L24.8375 126.539856L26.275 126.539856L26.275 133.6961L24.8375 133.6961ZM27.884375 126.539856L30.74375 126.539856Q31.5875 126.539856 32.009377 126.61798Q32.43125 126.68048 32.759377 126.914856Q33.0875 127.133606 33.30625 127.508606Q33.525 127.86798 33.525 128.33673Q33.525 128.83673 33.24375 129.2586Q32.978127 129.68048 32.525 129.89923Q33.18125 130.08673 33.525 130.53986Q33.884377 130.99298 33.884377 131.61798Q33.884377 132.10236 33.65 132.5711Q33.43125 133.02423 33.025 133.30548Q32.634377 133.58673 32.05625 133.64923Q31.696875 133.68048 30.321875 133.6961L27.884375 133.6961L27.884375 126.539856ZM29.321875 127.727356L29.321875 129.3836L30.275 129.3836Q31.11875 129.3836 31.321875 129.35236Q31.696875 129.3211 31.9 129.10236Q32.11875 128.8836 32.11875 128.53986Q32.11875 128.21173 31.93125 128.0086Q31.759375 127.789856 31.4 127.758606Q31.18125 127.727356 30.165625 127.727356L29.321875 127.727356ZM29.321875 130.5711L29.321875 132.49298L30.665625 132.49298Q31.446875 132.49298 31.65 132.4461Q31.978125 132.3836 32.18125 132.16486Q32.384377 131.93048 32.384377 131.55548Q32.384377 131.22736 32.228127 131.0086Q32.071877 130.77423 31.775 130.68048Q31.478125 130.5711 30.49375 130.5711L29.321875 130.5711ZM34.884377 133.6961L34.884377 126.539856L37.93125 126.539856Q39.071877 126.539856 39.5875 126.74298Q40.11875 126.93048 40.43125 127.43048Q40.74375 127.914856 40.74375 128.53986Q40.74375 129.35236 40.259377 129.8836Q39.790627 130.39923 38.853127 130.53986Q39.321877 130.80548 39.61875 131.1336Q39.93125 131.46173 40.446877 132.30548L41.321877 133.6961L39.5875 133.6961L38.540627 132.1336Q37.99375 131.30548 37.775 131.08673Q37.571877 130.86798 37.3375 130.78986Q37.11875 130.71173 36.61875 130.71173L36.321877 130.71173L36.321877 133.6961L34.884377 133.6961ZM36.321877 129.5711L37.4 129.5711Q38.43125 129.5711 38.696877 129.47736Q38.9625 129.3836 39.103127 129.18048Q39.24375 128.96173 39.24375 128.6336Q39.24375 128.27423 39.05625 128.05548Q38.86875 127.83673 38.509377 127.77423Q38.3375 127.74298 37.4625 127.74298L36.321877 127.74298L36.321877 129.5711ZM41.525 131.78986L42.853127 131.6336Q42.915627 132.14923 43.196877 132.41486Q43.478127 132.68048 43.86875 132.68048Q44.290627 132.68048 44.571877 132.36798Q44.86875 132.03986 44.86875 131.49298Q44.86875 130.97736 44.5875 130.68048Q44.321877 130.36798 43.915627 130.36798Q43.65 130.36798 43.290627 130.46173L43.446877 129.35236Q43.99375 129.36798 44.290627 129.11798Q44.5875 128.85236 44.5875 128.43048Q44.5875 128.0711 44.36875 127.852356Q44.15 127.633606 43.790627 127.633606Q43.446877 127.633606 43.196877 127.883606Q42.946877 128.11798 42.9 128.58673L41.634377 128.3836Q41.759377 127.727356 42.025 127.33673Q42.290627 126.946106 42.759377 126.727356Q43.24375 126.508606 43.8375 126.508606Q44.853127 126.508606 45.4625 127.14923Q45.9625 127.68048 45.9625 128.33673Q45.9625 129.28986 44.93125 129.85236Q45.540627 129.97736 45.9 130.4461Q46.275 130.89923 46.275 131.53986Q46.275 132.49298 45.5875 133.16486Q44.9 133.8211 43.884377 133.8211Q42.915627 133.8211 42.275 133.2586Q41.634377 132.6961 41.525 131.78986Z" fill-rule="nonzero"/><path fill="#9e9e9e" d="M16.525 147.78986L17.853125 147.6336Q17.915625 148.14923 18.196875 148.41486Q18.478125 148.68048 18.86875 148.68048Q19.290625 148.68048 19.571875 148.36798Q19.86875 148.03986 19.86875 147.49298Q19.86875 146.97736 19.5875 146.68048Q19.321875 146.36798 18.915625 146.36798Q18.65 146.36798 18.290625 146.46173L18.446875 145.35236Q18.99375 145.36798 19.290625 145.11798Q19.5875 144.85236 19.5875 144.43048Q19.5875 144.0711 19.36875 143.85236Q19.15 143.6336 18.790625 143.6336Q18.446875 143.6336 18.196875 143.8836Q17.946875 144.11798 17.9 144.58673L16.634375 144.3836Q16.759375 143.72736 17.025 143.33673Q17.290625 142.9461 17.759375 142.72736Q18.24375 142.5086 18.8375 142.5086Q19.853125 142.5086 20.4625 143.14923Q20.9625 143.68048 20.9625 144.33673Q20.9625 145.28986 19.93125 145.85236Q20.540625 145.97736 20.9 146.4461Q21.275 146.89923 21.275 147.53986Q21.275 148.49298 20.5875 149.16486Q19.9 149.8211 18.884375 149.8211Q17.915625 149.8211 17.275 149.2586Q16.634375 148.6961 16.525 147.78986ZM26.0875 149.6961L24.7125 149.6961L24.7125 144.52423Q23.9625 145.22736 22.946875 145.5711L22.946875 144.3211Q23.478125 144.14923 24.103125 143.66486Q24.74375 143.16486 24.978125 142.5086L26.0875 142.5086L26.0875 149.6961ZM28.8375 148.3211L30.2125 148.3211L30.2125 149.30548Q30.2125 149.89923 30.103125 150.24298Q29.99375 150.58673 29.7125 150.85236Q29.43125 151.1336 28.99375 151.28986L28.728125 150.72736Q29.134375 150.58673 29.30625 150.35236Q29.49375 150.11798 29.49375 149.6961L28.8375 149.6961L28.8375 148.3211ZM31.571875 143.91486L31.571875 142.6336L36.275 142.6336L36.275 143.6336Q35.68125 144.1961 35.071877 145.27423Q34.478127 146.33673 34.165627 147.53986Q33.853127 148.74298 33.853127 149.6961L32.540627 149.6961Q32.571877 148.21173 33.15 146.66486Q33.728127 145.11798 34.696877 143.91486L31.571875 143.91486ZM37.5875 144.30548Q37.5875 143.33673 38.009377 142.8836Q38.43125 142.41486 39.15 142.41486Q39.9 142.41486 40.321877 142.8836Q40.74375 143.33673 40.74375 144.30548Q40.74375 145.27423 40.321877 145.74298Q39.9 146.1961 39.18125 146.1961Q38.43125 146.1961 38.009377 145.74298Q37.5875 145.27423 37.5875 144.30548ZM38.65 144.28986Q38.65 144.99298 38.821877 145.22736Q38.93125 145.41486 39.15 145.41486Q39.36875 145.41486 39.49375 145.22736Q39.65 144.99298 39.65 144.28986Q39.65 143.60236 39.49375 143.36798Q39.36875 143.18048 39.15 143.18048Q38.93125 143.18048 38.821877 143.35236Q38.65 143.60236 38.65 144.28986ZM40.196877 149.97736L39.18125 149.97736L42.99375 142.41486L43.978127 142.41486L40.196877 149.97736ZM42.415627 148.08673Q42.415627 147.1336 42.8375 146.66486Q43.259377 146.1961 43.99375 146.1961Q44.728127 146.1961 45.15 146.66486Q45.571877 147.1336 45.571877 148.08673Q45.571877 149.05548 45.15 149.52423Q44.728127 149.97736 44.009377 149.97736Q43.259377 149.97736 42.8375 149.52423Q42.415627 149.05548 42.415627 148.08673ZM43.478127 148.08673Q43.478127 148.78986 43.65 149.02423Q43.759377 149.1961 43.978127 149.1961Q44.196877 149.1961 44.321877 149.02423Q44.478127 148.78986 44.478127 148.08673Q44.478127 147.3836 44.321877 147.14923Q44.196877 146.97736 43.978127 146.97736Q43.759377 146.97736 43.65 147.14923Q43.478127 147.3836 43.478127 148.08673Z" fill-rule="nonzero"/><path stroke="#757575" stroke-width="1.0" stroke-linecap="butt" d="M16.15 138.1961L127.53333 138.1961L148.33524 138.1961" fill-rule="nonzero"/><path fill="#9e9e9e" d="M150.33524 138.1961C150.33524 137.09154 149.4398 136.1961 148.33524 136.1961C147.23067 136.1961 146.33524 137.09154 146.33524 138.1961C146.33524 139.30067 147.23067 140.1961 148.33524 140.1961C149.4398 140.1961 150.33524 139.30067 150.33524 138.1961" fill-rule="nonzero"/><path fill="#1a1a1a" d="M16.884375 230.24278L19.74375 230.24278Q20.5875 230.24278 21.009375 230.3209Q21.43125 230.3834 21.759375 230.61778Q22.0875 230.83653 22.30625 231.21153Q22.525 231.5709 22.525 232.03966Q22.525 232.53966 22.24375 232.96153Q21.978125 233.3834 21.525 233.60216Q22.18125 233.78966 22.525 234.24278Q22.884375 234.6959 22.884375 235.3209Q22.884375 235.80528 22.65 236.27403Q22.43125 236.72716 22.025 237.0084Q21.634375 237.28966 21.05625 237.35216Q20.696875 237.3834 19.321875 237.39903L16.884375 237.39903L16.884375 230.24278ZM18.321875 231.43028L18.321875 233.08653L19.275 233.08653Q20.11875 233.08653 20.321875 233.05528Q20.696875 233.02403 20.9 232.80528Q21.11875 232.58653 21.11875 232.24278Q21.11875 231.91466 20.93125 231.71153Q20.759375 231.49278 20.4 231.46153Q20.18125 231.43028 19.165625 231.43028L18.321875 231.43028ZM18.321875 234.27403L18.321875 236.1959L19.665625 236.1959Q20.446875 236.1959 20.65 236.14903Q20.978125 236.08653 21.18125 235.86778Q21.384375 235.6334 21.384375 235.2584Q21.384375 234.93028 21.228125 234.71153Q21.071875 234.47716 20.775 234.3834Q20.478125 234.27403 19.49375 234.27403L18.321875 234.27403ZM23.884375 230.24278L26.74375 230.24278Q27.5875 230.24278 28.009375 230.3209Q28.43125 230.3834 28.759375 230.61778Q29.0875 230.83653 29.30625 231.21153Q29.525 231.5709 29.525 232.03966Q29.525 232.53966 29.24375 232.96153Q28.978125 233.3834 28.525 233.60216Q29.18125 233.78966 29.525 234.24278Q29.884375 234.6959 29.884375 235.3209Q29.884375 235.80528 29.65 236.27403Q29.43125 236.72716 29.025 237.0084Q28.634375 237.28966 28.05625 237.35216Q27.696875 237.3834 26.321875 237.39903L23.884375 237.39903L23.884375 230.24278ZM25.321875 231.43028L25.321875 233.08653L26.275 233.08653Q27.11875 233.08653 27.321875 233.05528Q27.696875 233.02403 27.9 232.80528Q28.11875 232.58653 28.11875 232.24278Q28.11875 231.91466 27.93125 231.71153Q27.759375 231.49278 27.4 231.46153Q27.18125 231.43028 26.165625 231.43028L25.321875 231.43028ZM25.321875 234.27403L25.321875 236.1959L26.665625 236.1959Q27.446875 236.1959 27.65 236.14903Q27.978125 236.08653 28.18125 235.86778Q28.384375 235.6334 28.384375 235.2584Q28.384375 234.93028 28.228125 234.71153Q28.071875 234.47716 27.775 234.3834Q27.478125 234.27403 26.49375 234.27403L25.321875 234.27403ZM30.86875 230.24278L33.509377 230.24278Q34.415627 230.24278 34.884377 230.3834Q35.509377 230.55528 35.946877 231.03966Q36.4 231.5084 36.634377 232.1959Q36.86875 232.8834 36.86875 233.8834Q36.86875 234.77403 36.65 235.41466Q36.384377 236.1959 35.884377 236.68028Q35.509377 237.03966 34.86875 237.24278Q34.4 237.39903 33.5875 237.39903L30.86875 237.39903L30.86875 230.24278ZM32.321877 231.4459L32.321877 236.1959L33.4 236.1959Q34.009377 236.1959 34.275 236.11778Q34.61875 236.03966 34.853127 235.83653Q35.0875 235.61778 35.228127 235.1334Q35.384377 234.64903 35.384377 233.8209Q35.384377 232.99278 35.228127 232.55528Q35.0875 232.10216 34.821877 231.85216Q34.55625 231.60216 34.15 231.52403Q33.853127 231.4459 32.9625 231.4459L32.321877 231.4459ZM42.4625 234.77403L43.853127 235.21153Q43.540627 236.3834 42.790627 236.96153Q42.040627 237.52403 40.884377 237.52403Q39.4625 237.52403 38.540627 236.55528Q37.61875 235.5709 37.61875 233.8834Q37.61875 232.10216 38.540627 231.11778Q39.4625 230.11778 40.978127 230.11778Q42.290627 230.11778 43.103127 230.89903Q43.603127 231.35216 43.8375 232.21153L42.415627 232.55528Q42.275 231.99278 41.86875 231.68028Q41.478127 231.35216 40.9 231.35216Q40.103127 231.35216 39.603127 231.93028Q39.11875 232.49278 39.11875 233.77403Q39.11875 235.1334 39.603127 235.71153Q40.0875 236.28966 40.86875 236.28966Q41.446877 236.28966 41.853127 235.93028Q42.275 235.55528 42.4625 234.77403ZM44.525 235.49278L45.853127 235.33653Q45.915627 235.85216 46.196877 236.11778Q46.478127 236.3834 46.86875 236.3834Q47.290627 236.3834 47.571877 236.0709Q47.86875 235.74278 47.86875 235.1959Q47.86875 234.68028 47.5875 234.3834Q47.321877 234.0709 46.915627 234.0709Q46.65 234.0709 46.290627 234.16466L46.446877 233.05528Q46.99375 233.0709 47.290627 232.8209Q47.5875 232.55528 47.5875 232.1334Q47.5875 231.77403 47.36875 231.55528Q47.15 231.33653 46.790627 231.33653Q46.446877 231.33653 46.196877 231.58653Q45.946877 231.8209 45.9 232.28966L44.634377 232.08653Q44.759377 231.43028 45.025 231.03966Q45.290627 230.64903 45.759377 230.43028Q46.24375 230.21153 46.8375 230.21153Q47.853127 230.21153 48.4625 230.85216Q48.9625 231.3834 48.9625 232.03966Q48.9625 232.99278 47.93125 233.55528Q48.540627 233.68028 48.9 234.14903Q49.275 234.60216 49.275 235.24278Q49.275 236.1959 48.5875 236.86778Q47.9 237.52403 46.884377 237.52403Q45.915627 237.52403 45.275 236.96153Q44.634377 236.39903 44.525 235.49278Z" fill-rule="nonzero"/><path fill="#9e9e9e" d="M16.525 251.49278L17.853125 251.33653Q17.915625 251.85216 18.196875 252.11778Q18.478125 252.3834 18.86875 252.3834Q19.290625 252.3834 19.571875 252.0709Q19.86875 251.74278 19.86875 251.1959Q19.86875 250.68028 19.5875 250.3834Q19.321875 250.0709 18.915625 250.0709Q18.65 250.0709 18.290625 250.16466L18.446875 249.05528Q18.99375 249.0709 19.290625 248.8209Q19.5875 248.55528 19.5875 248.1334Q19.5875 247.77403 19.36875 247.55528Q19.15 247.33653 18.790625 247.33653Q18.446875 247.33653 18.196875 247.58653Q17.946875 247.8209 17.9 248.28966L16.634375 248.08653Q16.759375 247.43028 17.025 247.03966Q17.290625 246.64903 17.759375 246.43028Q18.24375 246.21153 18.8375 246.21153Q19.853125 246.21153 20.4625 246.85216Q20.9625 247.3834 20.9625 248.03966Q20.9625 248.99278 19.93125 249.55528Q20.540625 249.68028 20.9 250.14903Q21.275 250.60216 21.275 251.24278Q21.275 252.1959 20.5875 252.86778Q19.9 253.52403 18.884375 253.52403Q17.915625 253.52403 17.275 252.96153Q16.634375 252.39903 16.525 251.49278ZM22.8375 252.02403L24.2125 252.02403L24.2125 253.0084Q24.2125 253.60216 24.103125 253.9459Q23.99375 254.28966 23.7125 254.55528Q23.43125 254.83653 22.99375 254.99278L22.728125 254.43028Q23.134375 254.28966 23.30625 254.05528Q23.49375 253.8209 23.49375 253.39903L22.8375 253.39903L22.8375 252.02403ZM30.2125 252.11778L30.2125 253.39903L25.4 253.39903Q25.478125 252.68028 25.86875 252.03966Q26.259375 251.3834 27.415625 250.30528Q28.3375 249.4459 28.55625 249.1334Q28.8375 248.71153 28.8375 248.30528Q28.8375 247.83653 28.5875 247.60216Q28.3375 247.35216 27.9 247.35216Q27.478125 247.35216 27.2125 247.61778Q26.9625 247.86778 26.93125 248.46153L25.55625 248.33653Q25.68125 247.1959 26.321875 246.71153Q26.978125 246.21153 27.93125 246.21153Q28.99375 246.21153 29.603125 246.78966Q30.2125 247.35216 30.2125 248.1959Q30.2125 248.68028 30.040625 249.11778Q29.86875 249.55528 29.49375 250.03966Q29.24375 250.35216 28.5875 250.96153Q27.93125 251.55528 27.759375 251.7584Q27.5875 251.9459 27.478125 252.11778L30.2125 252.11778ZM31.5875 248.0084Q31.5875 247.03966 32.009377 246.58653Q32.43125 246.11778 33.15 246.11778Q33.9 246.11778 34.321877 246.58653Q34.74375 247.03966 34.74375 248.0084Q34.74375 248.97716 34.321877 249.4459Q33.9 249.89903 33.18125 249.89903Q32.43125 249.89903 32.009377 249.4459Q31.5875 248.97716 31.5875 248.0084ZM32.65 247.99278Q32.65 248.6959 32.821877 248.93028Q32.93125 249.11778 33.15 249.11778Q33.36875 249.11778 33.49375 248.93028Q33.65 248.6959 33.65 247.99278Q33.65 247.30528 33.49375 247.0709Q33.36875 246.8834 33.15 246.8834Q32.93125 246.8834 32.821877 247.05528Q32.65 247.30528 32.65 247.99278ZM34.196877 253.68028L33.18125 253.68028L36.99375 246.11778L37.978127 246.11778L34.196877 253.68028ZM36.415627 251.78966Q36.415627 250.83653 36.8375 250.36778Q37.259377 249.89903 37.99375 249.89903Q38.728127 249.89903 39.15 250.36778Q39.571877 250.83653 39.571877 251.78966Q39.571877 252.7584 39.15 253.22716Q38.728127 253.68028 38.009377 253.68028Q37.259377 253.68028 36.8375 253.22716Q36.415627 252.7584 36.415627 251.78966ZM37.478127 251.78966Q37.478127 252.49278 37.65 252.72716Q37.759377 252.89903 37.978127 252.89903Q38.196877 252.89903 38.321877 252.72716Q38.478127 252.49278 38.478127 251.78966Q38.478127 251.08653 38.321877 250.85216Q38.196877 250.68028 37.978127 250.68028Q37.759377 250.68028 37.65 250.85216Q37.478127 251.08653 37.478127 251.78966Z" fill-rule="nonzero"/><path stroke="#757575" stroke-width="1.0" stroke-linecap="butt" d="M16.15 241.89903L127.53333 241.89903L198.10999 241.89903" fill-rule="nonzero"/><path fill="#9e9e9e" d="M200.10999 241.89903C200.10999 240.79446 199.21455 239.89903 198.10999 239.89903C197.00542 239.89903 196.10999 240.79446 196.10999 241.89903C196.10999 243.0036 197.00542 243.89903 198.10999 243.89903C199.21455 243.89903 200.10999 243.0036 200.10999 241.89903" fill-rule="nonzero"/><path fill="#1a1a1a" d="M470.58438 64.54867L470.58438 57.392418L472.89688 57.392418Q474.20938 57.392418 474.61563 57.501793Q475.225 57.658043 475.64688 58.204918Q476.06876 58.736168 476.06876 59.595543Q476.06876 60.251793 475.81876 60.704918Q475.58438 61.142418 475.20938 61.408043Q474.85 61.658043 474.45938 61.751793Q473.94376 61.845543 472.95938 61.845543L472.02188 61.845543L472.02188 64.54867L470.58438 64.54867ZM472.02188 58.595543L472.02188 60.626793L472.81876 60.626793Q473.6625 60.626793 473.94376 60.517418Q474.24063 60.408043 474.39688 60.173668Q474.56876 59.923668 474.56876 59.611168Q474.56876 59.220543 474.33438 58.970543Q474.11563 58.720543 473.75626 58.642418Q473.50626 58.595543 472.725 58.595543L472.02188 58.595543ZM477.2875 61.017418Q477.2875 59.923668 477.61563 59.173668Q477.85 58.626793 478.27188 58.204918Q478.69376 57.767418 479.20938 57.548668Q479.86563 57.267418 480.74063 57.267418Q482.33438 57.267418 483.27188 58.251793Q484.225 59.236168 484.225 60.986168Q484.225 62.704918 483.2875 63.689293Q482.35 64.67367 480.77188 64.67367Q479.1625 64.67367 478.225 63.704918Q477.2875 62.720543 477.2875 61.017418ZM478.77188 60.970543Q478.77188 62.173668 479.33438 62.814293Q479.89688 63.439293 480.75626 63.439293Q481.63126 63.439293 482.17813 62.814293Q482.74063 62.189293 482.74063 60.939293Q482.74063 59.720543 482.19376 59.111168Q481.6625 58.501793 480.75626 58.501793Q479.86563 58.501793 479.31876 59.126793Q478.77188 59.736168 478.77188 60.970543ZM485.55313 64.54867L485.55313 57.392418L487.725 57.392418L489.02188 62.267418L490.30313 57.392418L492.475 57.392418L492.475 64.54867L491.13126 64.54867L491.13126 58.908043L489.70938 64.54867L488.31876 64.54867L486.89688 58.908043L486.89688 64.54867L485.55313 64.54867ZM493.2875 61.017418Q493.2875 59.923668 493.61563 59.173668Q493.85 58.626793 494.27188 58.204918Q494.69376 57.767418 495.20938 57.548668Q495.86563 57.267418 496.74063 57.267418Q498.33438 57.267418 499.27188 58.251793Q500.225 59.236168 500.225 60.986168Q500.225 62.704918 499.2875 63.689293Q498.35 64.67367 496.77188 64.67367Q495.1625 64.67367 494.225 63.704918Q493.2875 62.720543 493.2875 61.017418ZM494.77188 60.970543Q494.77188 62.173668 495.33438 62.814293Q495.89688 63.439293 496.75626 63.439293Q497.63126 63.439293 498.17813 62.814293Q498.74063 62.189293 498.74063 60.939293Q498.74063 59.720543 498.19376 59.111168Q497.6625 58.501793 496.75626 58.501793Q495.86563 58.501793 495.31876 59.126793Q494.77188 59.736168 494.77188 60.970543ZM501.225 62.642418L502.55313 62.486168Q502.61563 63.001793 502.89688 63.267418Q503.17813 63.533043 503.56876 63.533043Q503.99063 63.533043 504.27188 63.220543Q504.56876 62.892418 504.56876 62.345543Q504.56876 61.829918 504.2875 61.533043Q504.02188 61.220543 503.61563 61.220543Q503.35 61.220543 502.99063 61.314293L503.14688 60.204918Q503.69376 60.220543 503.99063 59.970543Q504.2875 59.704918 504.2875 59.283043Q504.2875 58.923668 504.06876 58.704918Q503.85 58.486168 503.49063 58.486168Q503.14688 58.486168 502.89688 58.736168Q502.64688 58.970543 502.6 59.439293L501.33438 59.236168Q501.45938 58.579918 501.725 58.189293Q501.99063 57.798668 502.45938 57.579918Q502.94376 57.361168 503.5375 57.361168Q504.55313 57.361168 505.1625 58.001793Q505.6625 58.533043 505.6625 59.189293Q505.6625 60.142418 504.63126 60.704918Q505.24063 60.829918 505.6 61.298668Q505.975 61.751793 505.975 62.392418Q505.975 63.345543 505.2875 64.01742Q504.6 64.67367 503.58438 64.67367Q502.61563 64.67367 501.975 64.11117Q501.33438 63.548668 501.225 62.642418Z" fill-rule="nonzero"/><path fill="#9e9e9e" d="M483.27188 74.76742L483.27188 73.48617L487.975 73.48617L487.975 74.48617Q487.38126 75.04867 486.77188 76.12679Q486.17813 77.18929 485.86563 78.39242Q485.55313 79.59554 485.55313 80.54867L484.24063 80.54867Q484.27188 79.06429 484.85 77.51742Q485.42813 75.97054 486.39688 74.76742L483.27188 74.76742ZM489.5375 79.17367L490.9125 79.17367L490.9125 80.15804Q490.9125 80.75179 490.80313 81.09554Q490.69376 81.43929 490.4125 81.70492Q490.13126 81.98617 489.69376 82.14242L489.42813 81.57992Q489.83438 81.43929 490.00626 81.20492Q490.19376 80.97054 490.19376 80.54867L489.5375 80.54867L489.5375 79.17367ZM492.30313 78.89242L493.63126 78.75179Q493.67813 79.15804 493.88126 79.36117Q494.08438 79.54867 494.42813 79.54867Q494.85 79.54867 495.14688 79.15804Q495.44376 78.76742 495.5375 77.53304Q495.02188 78.12679 494.24063 78.12679Q493.39688 78.12679 492.77188 77.48617Q492.1625 76.82992 492.1625 75.78304Q492.1625 74.68929 492.80313 74.03304Q493.45938 73.36117 494.45938 73.36117Q495.55313 73.36117 496.24063 74.20492Q496.94376 75.04867 496.94376 76.97054Q496.94376 78.93929 496.20938 79.81429Q495.49063 80.67367 494.31876 80.67367Q493.49063 80.67367 492.95938 80.23617Q492.44376 79.78304 492.30313 78.89242ZM495.4125 75.89242Q495.4125 75.23617 495.1 74.87679Q494.80313 74.50179 494.39688 74.50179Q494.02188 74.50179 493.77188 74.79867Q493.52188 75.09554 493.52188 75.78304Q493.52188 76.47054 493.7875 76.79867Q494.06876 77.12679 494.475 77.12679Q494.86563 77.12679 495.13126 76.81429Q495.4125 76.50179 495.4125 75.89242ZM498.2875 75.15804Q498.2875 74.18929 498.70938 73.73617Q499.13126 73.26742 499.85 73.26742Q500.6 73.26742 501.02188 73.73617Q501.44376 74.18929 501.44376 75.15804Q501.44376 76.12679 501.02188 76.59554Q500.6 77.04867 499.88126 77.04867Q499.13126 77.04867 498.70938 76.59554Q498.2875 76.12679 498.2875 75.15804ZM499.35 75.14242Q499.35 75.84554 499.52188 76.07992Q499.63126 76.26742 499.85 76.26742Q500.06876 76.26742 500.19376 76.07992Q500.35 75.84554 500.35 75.14242Q500.35 74.45492 500.19376 74.22054Q500.06876 74.03304 499.85 74.03304Q499.63126 74.03304 499.52188 74.20492Q499.35 74.45492 499.35 75.14242ZM500.89688 80.82992L499.88126 80.82992L503.69376 73.26742L504.67813 73.26742L500.89688 80.82992ZM503.11563 78.93929Q503.11563 77.98617 503.5375 77.51742Q503.95938 77.04867 504.69376 77.04867Q505.42813 77.04867 505.85 77.51742Q506.27188 77.98617 506.27188 78.93929Q506.27188 79.90804 505.85 80.37679Q505.42813 80.82992 504.70938 80.82992Q503.95938 80.82992 503.5375 80.37679Q503.11563 79.90804 503.11563 78.93929ZM504.17813 78.93929Q504.17813 79.64242 504.35 79.87679Q504.45938 80.04867 504.67813 80.04867Q504.89688 80.04867 505.02188 79.87679Q505.17813 79.64242 505.17813 78.93929Q505.17813 78.23617 505.02188 78.00179Q504.89688 77.82992 504.67813 77.82992Q504.45938 77.82992 504.35 78.00179Q504.17813 78.23617 504.17813 78.93929Z" fill-rule="nonzero"/><path stroke="#757575" stroke-width="1.0" stroke-linecap="butt" d="M506.85 69.04867L395.46667 69.04867L291.4979 86.81946" fill-rule="nonzero"/><path fill="#9e9e9e" d="M293.4979 86.81946C293.4979 85.71489 292.60245 84.81946 291.4979 84.81946C290.3933 84.81946 289.4979 85.71489 289.4979 86.81946C289.4979 87.92403 290.3933 88.81946 291.4979 88.81946C292.60245 88.81946 293.4979 87.92403 293.4979 86.81946" fill-rule="nonzero"/><path fill="#1a1a1a" d="M471.58438 93.54867L471.58438 86.39242L473.89688 86.39242Q475.20938 86.39242 475.61563 86.50179Q476.225 86.65804 476.64688 87.20492Q477.06876 87.73617 477.06876 88.59554Q477.06876 89.25179 476.81876 89.70492Q476.58438 90.14242 476.20938 90.40804Q475.85 90.65804 475.45938 90.75179Q474.94376 90.84554 473.95938 90.84554L473.02188 90.84554L473.02188 93.54867L471.58438 93.54867ZM473.02188 87.59554L473.02188 89.62679L473.81876 89.62679Q474.6625 89.62679 474.94376 89.51742Q475.24063 89.40804 475.39688 89.17367Q475.56876 88.92367 475.56876 88.61117Q475.56876 88.22054 475.33438 87.97054Q475.11563 87.72054 474.75626 87.64242Q474.50626 87.59554 473.725 87.59554L473.02188 87.59554ZM481.9125 90.92367L481.9125 89.70492L485.02188 89.70492L485.02188 92.56429Q484.56876 93.00179 483.70938 93.34554Q482.85 93.67367 481.95938 93.67367Q480.83438 93.67367 479.99063 93.20492Q479.1625 92.72054 478.74063 91.84554Q478.33438 90.97054 478.33438 89.93929Q478.33438 88.82992 478.80313 87.97054Q479.27188 87.09554 480.1625 86.62679Q480.86563 86.26742 481.88126 86.26742Q483.20938 86.26742 483.95938 86.82992Q484.70938 87.39242 484.92813 88.37679L483.49063 88.64242Q483.35 88.11117 482.92813 87.81429Q482.50626 87.50179 481.88126 87.50179Q480.94376 87.50179 480.38126 88.11117Q479.81876 88.70492 479.81876 89.89242Q479.81876 91.15804 480.38126 91.79867Q480.94376 92.43929 481.86563 92.43929Q482.31876 92.43929 482.77188 92.26742Q483.24063 92.07992 483.56876 91.82992L483.56876 90.92367L481.9125 90.92367ZM486.55313 93.54867L486.55313 86.39242L488.725 86.39242L490.02188 91.26742L491.30313 86.39242L493.475 86.39242L493.475 93.54867L492.13126 93.54867L492.13126 87.90804L490.70938 93.54867L489.31876 93.54867L487.89688 87.90804L487.89688 93.54867L486.55313 93.54867ZM494.6 93.54867L494.6 86.39242L496.00626 86.39242L498.92813 91.17367L498.92813 86.39242L500.27188 86.39242L500.27188 93.54867L498.81876 93.54867L495.92813 88.87679L495.92813 93.54867L494.6 93.54867ZM501.225 91.64242L502.55313 91.48617Q502.61563 92.00179 502.89688 92.26742Q503.17813 92.53304 503.56876 92.53304Q503.99063 92.53304 504.27188 92.22054Q504.56876 91.89242 504.56876 91.34554Q504.56876 90.82992 504.2875 90.53304Q504.02188 90.22054 503.61563 90.22054Q503.35 90.22054 502.99063 90.31429L503.14688 89.20492Q503.69376 89.22054 503.99063 88.97054Q504.2875 88.70492 504.2875 88.28304Q504.2875 87.92367 504.06876 87.70492Q503.85 87.48617 503.49063 87.48617Q503.14688 87.48617 502.89688 87.73617Q502.64688 87.97054 502.6 88.43929L501.33438 88.23617Q501.45938 87.57992 501.725 87.18929Q501.99063 86.79867 502.45938 86.57992Q502.94376 86.36117 503.5375 86.36117Q504.55313 86.36117 505.1625 87.00179Q505.6625 87.53304 505.6625 88.18929Q505.6625 89.14242 504.63126 89.70492Q505.24063 89.82992 505.6 90.29867Q505.975 90.75179 505.975 91.39242Q505.975 92.34554 505.2875 93.01742Q504.6 93.67367 503.58438 93.67367Q502.61563 93.67367 501.975 93.11117Q501.33438 92.54867 501.225 91.64242Z" fill-rule="nonzero"/><path fill="#9e9e9e" d="M480.7875 109.54867L479.4125 109.54867L479.4125 104.37679Q478.6625 105.07992 477.64688 105.42367L477.64688 104.17367Q478.17813 104.00179 478.80313 103.51742Q479.44376 103.01742 479.67813 102.36117L480.7875 102.36117L480.7875 109.54867ZM486.7875 109.54867L485.4125 109.54867L485.4125 104.37679Q484.6625 105.07992 483.64688 105.42367L483.64688 104.17367Q484.17813 104.00179 484.80313 103.51742Q485.44376 103.01742 485.67813 102.36117L486.7875 102.36117L486.7875 109.54867ZM489.5375 108.17367L490.9125 108.17367L490.9125 109.15804Q490.9125 109.75179 490.80313 110.09554Q490.69376 110.43929 490.4125 110.70492Q490.13126 110.98617 489.69376 111.14242L489.42813 110.57992Q489.83438 110.43929 490.00626 110.20492Q490.19376 109.97054 490.19376 109.54867L489.5375 109.54867L489.5375 108.17367ZM495.7875 109.54867L494.4125 109.54867L494.4125 104.37679Q493.6625 105.07992 492.64688 105.42367L492.64688 104.17367Q493.17813 104.00179 493.80313 103.51742Q494.44376 103.01742 494.67813 102.36117L495.7875 102.36117L495.7875 109.54867ZM498.2875 104.15804Q498.2875 103.18929 498.70938 102.73617Q499.13126 102.26742 499.85 102.26742Q500.6 102.26742 501.02188 102.73617Q501.44376 103.18929 501.44376 104.15804Q501.44376 105.12679 501.02188 105.59554Q500.6 106.04867 499.88126 106.04867Q499.13126 106.04867 498.70938 105.59554Q498.2875 105.12679 498.2875 104.15804ZM499.35 104.14242Q499.35 104.84554 499.52188 105.07992Q499.63126 105.26742 499.85 105.26742Q500.06876 105.26742 500.19376 105.07992Q500.35 104.84554 500.35 104.14242Q500.35 103.45492 500.19376 103.22054Q500.06876 103.03304 499.85 103.03304Q499.63126 103.03304 499.52188 103.20492Q499.35 103.45492 499.35 104.14242ZM500.89688 109.82992L499.88126 109.82992L503.69376 102.26742L504.67813 102.26742L500.89688 109.82992ZM503.11563 107.93929Q503.11563 106.98617 503.5375 106.51742Q503.95938 106.04867 504.69376 106.04867Q505.42813 106.04867 505.85 106.51742Q506.27188 106.98617 506.27188 107.93929Q506.27188 108.90804 505.85 109.37679Q505.42813 109.82992 504.70938 109.82992Q503.95938 109.82992 503.5375 109.37679Q503.11563 108.90804 503.11563 107.93929ZM504.17813 107.93929Q504.17813 108.64242 504.35 108.87679Q504.45938 109.04867 504.67813 109.04867Q504.89688 109.04867 505.02188 108.87679Q505.17813 108.64242 505.17813 107.93929Q505.17813 107.23617 505.02188 107.00179Q504.89688 106.82992 504.67813 106.82992Q504.45938 106.82992 504.35 107.00179Q504.17813 107.23617 504.17813 107.93929Z" fill-rule="nonzero"/><path stroke="#757575" stroke-width="1.0" stroke-linecap="butt" d="M506.85 98.04867L395.46667 98.04867L352.64966 112.9778" fill-rule="nonzero"/><path fill="#9e9e9e" d="M354.64966 112.9778C354.64966 111.87323 353.7542 110.9778 352.64966 110.9778C351.54507 110.9778 350.64966 111.87323 350.64966 112.9778C350.64966 114.082375 351.54507 114.9778 352.64966 114.9778C353.7542 114.9778 354.64966 114.082375 354.64966 112.9778" fill-rule="nonzero"/><path fill="#1a1a1a" d="M477.1625 119.92367L478.55313 120.36117Q478.24063 121.53304 477.49063 122.11117Q476.74063 122.67367 475.58438 122.67367Q474.1625 122.67367 473.24063 121.70492Q472.31876 120.72054 472.31876 119.03304Q472.31876 117.25179 473.24063 116.26742Q474.1625 115.26742 475.67813 115.26742Q476.99063 115.26742 477.80313 116.04867Q478.30313 116.50179 478.5375 117.36117L477.11563 117.70492Q476.975 117.14242 476.56876 116.82992Q476.17813 116.50179 475.6 116.50179Q474.80313 116.50179 474.30313 117.07992Q473.81876 117.64242 473.81876 118.92367Q473.81876 120.28304 474.30313 120.86117Q474.7875 121.43929 475.56876 121.43929Q476.14688 121.43929 476.55313 121.07992Q476.975 120.70492 477.1625 119.92367ZM484.1625 119.92367L485.55313 120.36117Q485.24063 121.53304 484.49063 122.11117Q483.74063 122.67367 482.58438 122.67367Q481.1625 122.67367 480.24063 121.70492Q479.31876 120.72054 479.31876 119.03304Q479.31876 117.25179 480.24063 116.26742Q481.1625 115.26742 482.67813 115.26742Q483.99063 115.26742 484.80313 116.04867Q485.30313 116.50179 485.5375 117.36117L484.11563 117.70492Q483.975 117.14242 483.56876 116.82992Q483.17813 116.50179 482.6 116.50179Q481.80313 116.50179 481.30313 117.07992Q480.81876 117.64242 480.81876 118.92367Q480.81876 120.28304 481.30313 120.86117Q481.7875 121.43929 482.56876 121.43929Q483.14688 121.43929 483.55313 121.07992Q483.975 120.70492 484.1625 119.92367ZM486.58438 122.54867L486.58438 115.39242L489.63126 115.39242Q490.77188 115.39242 491.2875 115.59554Q491.81876 115.78304 492.13126 116.28304Q492.44376 116.76742 492.44376 117.39242Q492.44376 118.20492 491.95938 118.73617Q491.49063 119.25179 490.55313 119.39242Q491.02188 119.65804 491.31876 119.98617Q491.63126 120.31429 492.14688 121.15804L493.02188 122.54867L491.2875 122.54867L490.24063 120.98617Q489.69376 120.15804 489.475 119.93929Q489.27188 119.72054 489.0375 119.64242Q488.81876 119.56429 488.31876 119.56429L488.02188 119.56429L488.02188 122.54867L486.58438 122.54867ZM488.02188 118.42367L489.1 118.42367Q490.13126 118.42367 490.39688 118.32992Q490.6625 118.23617 490.80313 118.03304Q490.94376 117.81429 490.94376 117.48617Q490.94376 117.12679 490.75626 116.90804Q490.56876 116.68929 490.20938 116.62679Q490.0375 116.59554 489.1625 116.59554L488.02188 116.59554L488.02188 118.42367ZM493.2875 119.01742Q493.2875 117.92367 493.61563 117.17367Q493.85 116.62679 494.27188 116.20492Q494.69376 115.76742 495.20938 115.54867Q495.86563 115.26742 496.74063 115.26742Q498.33438 115.26742 499.27188 116.25179Q500.225 117.23617 500.225 118.98617Q500.225 120.70492 499.2875 121.68929Q498.35 122.67367 496.77188 122.67367Q495.1625 122.67367 494.225 121.70492Q493.2875 120.72054 493.2875 119.01742ZM494.77188 118.97054Q494.77188 120.17367 495.33438 120.81429Q495.89688 121.43929 496.75626 121.43929Q497.63126 121.43929 498.17813 120.81429Q498.74063 120.18929 498.74063 118.93929Q498.74063 117.72054 498.19376 117.11117Q497.6625 116.50179 496.75626 116.50179Q495.86563 116.50179 495.31876 117.12679Q494.77188 117.73617 494.77188 118.97054ZM501.225 120.64242L502.55313 120.48617Q502.61563 121.00179 502.89688 121.26742Q503.17813 121.53304 503.56876 121.53304Q503.99063 121.53304 504.27188 121.22054Q504.56876 120.89242 504.56876 120.34554Q504.56876 119.82992 504.2875 119.53304Q504.02188 119.22054 503.61563 119.22054Q503.35 119.22054 502.99063 119.31429L503.14688 118.20492Q503.69376 118.22054 503.99063 117.97054Q504.2875 117.70492 504.2875 117.28304Q504.2875 116.92367 504.06876 116.70492Q503.85 116.48617 503.49063 116.48617Q503.14688 116.48617 502.89688 116.73617Q502.64688 116.97054 502.6 117.43929L501.33438 117.23617Q501.45938 116.57992 501.725 116.18929Q501.99063 115.79867 502.45938 115.57992Q502.94376 115.36117 503.5375 115.36117Q504.55313 115.36117 505.1625 116.00179Q505.6625 116.53304 505.6625 117.18929Q505.6625 118.14242 504.63126 118.70492Q505.24063 118.82992 505.6 119.29867Q505.975 119.75179 505.975 120.39242Q505.975 121.34554 505.2875 122.01742Q504.6 122.67367 503.58438 122.67367Q502.61563 122.67367 501.975 122.11117Q501.33438 121.54867 501.225 120.64242Z" fill-rule="nonzero"/><path fill="#9e9e9e" d="M483.225 136.64243L484.55313 136.48618Q484.61563 137.0018 484.89688 137.26743Q485.17813 137.53305 485.56876 137.53305Q485.99063 137.53305 486.27188 137.22055Q486.56876 136.89243 486.56876 136.34555Q486.56876 135.82993 486.2875 135.53305Q486.02188 135.22055 485.61563 135.22055Q485.35 135.22055 484.99063 135.3143L485.14688 134.20493Q485.69376 134.22055 485.99063 133.97055Q486.2875 133.70493 486.2875 133.28305Q486.2875 132.92368 486.06876 132.70493Q485.85 132.48618 485.49063 132.48618Q485.14688 132.48618 484.89688 132.73618Q484.64688 132.97055 484.6 133.4393L483.33438 133.23618Q483.45938 132.57993 483.725 132.1893Q483.99063 131.79868 484.45938 131.57993Q484.94376 131.36118 485.5375 131.36118Q486.55313 131.36118 487.1625 132.0018Q487.6625 132.53305 487.6625 133.1893Q487.6625 134.14243 486.63126 134.70493Q487.24063 134.82993 487.6 135.29868Q487.975 135.7518 487.975 136.39243Q487.975 137.34555 487.2875 138.01743Q486.6 138.67368 485.58438 138.67368Q484.61563 138.67368 483.975 138.11118Q483.33438 137.54868 483.225 136.64243ZM489.5375 137.17368L490.9125 137.17368L490.9125 138.15805Q490.9125 138.7518 490.80313 139.09555Q490.69376 139.4393 490.4125 139.70493Q490.13126 139.98618 489.69376 140.14243L489.42813 139.57993Q489.83438 139.4393 490.00626 139.20493Q490.19376 138.97055 490.19376 138.54868L489.5375 138.54868L489.5375 137.17368ZM496.9125 137.26743L496.9125 138.54868L492.1 138.54868Q492.17813 137.82993 492.56876 137.1893Q492.95938 136.53305 494.11563 135.45493Q495.0375 134.59555 495.25626 134.28305Q495.5375 133.86118 495.5375 133.45493Q495.5375 132.98618 495.2875 132.7518Q495.0375 132.5018 494.6 132.5018Q494.17813 132.5018 493.9125 132.76743Q493.6625 133.01743 493.63126 133.61118L492.25626 133.48618Q492.38126 132.34555 493.02188 131.86118Q493.67813 131.36118 494.63126 131.36118Q495.69376 131.36118 496.30313 131.9393Q496.9125 132.5018 496.9125 133.34555Q496.9125 133.82993 496.74063 134.26743Q496.56876 134.70493 496.19376 135.1893Q495.94376 135.5018 495.2875 136.11118Q494.63126 136.70493 494.45938 136.90805Q494.2875 137.09555 494.17813 137.26743L496.9125 137.26743ZM498.2875 133.15805Q498.2875 132.1893 498.70938 131.73618Q499.13126 131.26743 499.85 131.26743Q500.6 131.26743 501.02188 131.73618Q501.44376 132.1893 501.44376 133.15805Q501.44376 134.1268 501.02188 134.59555Q500.6 135.04868 499.88126 135.04868Q499.13126 135.04868 498.70938 134.59555Q498.2875 134.1268 498.2875 133.15805ZM499.35 133.14243Q499.35 133.84555 499.52188 134.07993Q499.63126 134.26743 499.85 134.26743Q500.06876 134.26743 500.19376 134.07993Q500.35 133.84555 500.35 133.14243Q500.35 132.45493 500.19376 132.22055Q500.06876 132.03305 499.85 132.03305Q499.63126 132.03305 499.52188 132.20493Q499.35 132.45493 499.35 133.14243ZM500.89688 138.82993L499.88126 138.82993L503.69376 131.26743L504.67813 131.26743L500.89688 138.82993ZM503.11563 136.9393Q503.11563 135.98618 503.5375 135.51743Q503.95938 135.04868 504.69376 135.04868Q505.42813 135.04868 505.85 135.51743Q506.27188 135.98618 506.27188 136.9393Q506.27188 137.90805 505.85 138.3768Q505.42813 138.82993 504.70938 138.82993Q503.95938 138.82993 503.5375 138.3768Q503.11563 137.90805 503.11563 136.9393ZM504.17813 136.9393Q504.17813 137.64243 504.35 137.8768Q504.45938 138.04868 504.67813 138.04868Q504.89688 138.04868 505.02188 137.8768Q505.17813 137.64243 505.17813 136.9393Q505.17813 136.23618 505.02188 136.0018Q504.89688 135.82993 504.67813 135.82993Q504.45938 135.82993 504.35 136.0018Q504.17813 136.23618 504.17813 136.9393Z" fill-rule="nonzero"/><path stroke="#757575" stroke-width="1.0" stroke-linecap="butt" d="M506.85 127.04867L395.46667 127.04867L378.52463 146.2379" fill-rule="nonzero"/><path fill="#9e9e9e" d="M380.52463 146.2379C380.52463 145.13333 379.62918 144.2379 378.52463 144.2379C377.42004 144.2379 376.52463 145.13333 376.52463 146.2379C376.52463 147.34247 377.42004 148.2379 378.52463 148.2379C379.62918 148.2379 380.52463 147.34247 380.52463 146.2379" fill-rule="nonzero"/><path fill="#1a1a1a" d="M473.58438 151.54868L473.58438 144.39243L475.02188 144.39243L475.02188 147.20493L477.86563 147.20493L477.86563 144.39243L479.30313 144.39243L479.30313 151.54868L477.86563 151.54868L477.86563 148.42368L475.02188 148.42368L475.02188 151.54868L473.58438 151.54868ZM487.0375 151.54868L485.45938 151.54868L484.83438 149.92368L481.975 149.92368L481.38126 151.54868L479.85 151.54868L482.63126 144.39243L484.1625 144.39243L487.0375 151.54868ZM484.36563 148.72055L483.38126 146.0643L482.4125 148.72055L484.36563 148.72055ZM487.58438 151.54868L487.58438 144.39243L489.89688 144.39243Q491.20938 144.39243 491.61563 144.5018Q492.225 144.65805 492.64688 145.20493Q493.06876 145.73618 493.06876 146.59555Q493.06876 147.2518 492.81876 147.70493Q492.58438 148.14243 492.20938 148.40805Q491.85 148.65805 491.45938 148.7518Q490.94376 148.84555 489.95938 148.84555L489.02188 148.84555L489.02188 151.54868L487.58438 151.54868ZM489.02188 145.59555L489.02188 147.6268L489.81876 147.6268Q490.6625 147.6268 490.94376 147.51743Q491.24063 147.40805 491.39688 147.17368Q491.56876 146.92368 491.56876 146.61118Q491.56876 146.22055 491.33438 145.97055Q491.11563 145.72055 490.75626 145.64243Q490.50626 145.59555 489.725 145.59555L489.02188 145.59555ZM496.39688 151.54868L493.85 144.39243L495.4125 144.39243L497.225 149.6893L498.975 144.39243L500.50626 144.39243L497.94376 151.54868L496.39688 151.54868ZM501.225 149.64243L502.55313 149.48618Q502.61563 150.0018 502.89688 150.26743Q503.17813 150.53305 503.56876 150.53305Q503.99063 150.53305 504.27188 150.22055Q504.56876 149.89243 504.56876 149.34555Q504.56876 148.82993 504.2875 148.53305Q504.02188 148.22055 503.61563 148.22055Q503.35 148.22055 502.99063 148.3143L503.14688 147.20493Q503.69376 147.22055 503.99063 146.97055Q504.2875 146.70493 504.2875 146.28305Q504.2875 145.92368 504.06876 145.70493Q503.85 145.48618 503.49063 145.48618Q503.14688 145.48618 502.89688 145.73618Q502.64688 145.97055 502.6 146.4393L501.33438 146.23618Q501.45938 145.57993 501.725 145.1893Q501.99063 144.79868 502.45938 144.57993Q502.94376 144.36118 503.5375 144.36118Q504.55313 144.36118 505.1625 145.0018Q505.6625 145.53305 505.6625 146.1893Q505.6625 147.14243 504.63126 147.70493Q505.24063 147.82993 505.6 148.29868Q505.975 148.7518 505.975 149.39243Q505.975 150.34555 505.2875 151.01743Q504.6 151.67368 503.58438 151.67368Q502.61563 151.67368 501.975 151.11118Q501.33438 150.54868 501.225 149.64243Z" fill-rule="nonzero"/><path fill="#9e9e9e" d="M485.95938 167.54868L485.95938 166.11118L483.0375 166.11118L483.0375 164.90805L486.14688 160.36118L487.2875 160.36118L487.2875 164.90805L488.17813 164.90805L488.17813 166.11118L487.2875 166.11118L487.2875 167.54868L485.95938 167.54868ZM485.95938 164.90805L485.95938 162.45493L484.31876 164.90805L485.95938 164.90805ZM489.5375 166.17368L490.9125 166.17368L490.9125 167.15805Q490.9125 167.7518 490.80313 168.09555Q490.69376 168.4393 490.4125 168.70493Q490.13126 168.98618 489.69376 169.14243L489.42813 168.57993Q489.83438 168.4393 490.00626 168.20493Q490.19376 167.97055 490.19376 167.54868L489.5375 167.54868L489.5375 166.17368ZM493.45938 163.6893Q492.9125 163.45493 492.67813 163.0643Q492.44376 162.67368 492.44376 162.20493Q492.44376 161.40805 492.99063 160.89243Q493.55313 160.36118 494.58438 160.36118Q495.6 160.36118 496.1625 160.89243Q496.74063 161.40805 496.74063 162.20493Q496.74063 162.70493 496.475 163.09555Q496.20938 163.48618 495.74063 163.6893Q496.35 163.92368 496.64688 164.39243Q496.95938 164.84555 496.95938 165.4393Q496.95938 166.4393 496.31876 167.0643Q495.69376 167.67368 494.64688 167.67368Q493.67813 167.67368 493.02188 167.15805Q492.25626 166.5643 492.25626 165.5018Q492.25626 164.92368 492.5375 164.4393Q492.83438 163.95493 493.45938 163.6893ZM493.74063 162.29868Q493.74063 162.72055 493.95938 162.95493Q494.19376 163.17368 494.58438 163.17368Q494.975 163.17368 495.20938 162.9393Q495.44376 162.70493 495.44376 162.29868Q495.44376 161.90805 495.20938 161.6893Q494.975 161.45493 494.6 161.45493Q494.20938 161.45493 493.975 161.6893Q493.74063 161.92368 493.74063 162.29868ZM493.61563 165.3768Q493.61563 165.9393 493.89688 166.2518Q494.19376 166.5643 494.63126 166.5643Q495.05313 166.5643 495.31876 166.26743Q495.6 165.95493 495.6 165.39243Q495.6 164.8768 495.31876 164.57993Q495.0375 164.26743 494.6 164.26743Q494.1 164.26743 493.85 164.6268Q493.61563 164.97055 493.61563 165.3768ZM498.2875 162.15805Q498.2875 161.1893 498.70938 160.73618Q499.13126 160.26743 499.85 160.26743Q500.6 160.26743 501.02188 160.73618Q501.44376 161.1893 501.44376 162.15805Q501.44376 163.1268 501.02188 163.59555Q500.6 164.04868 499.88126 164.04868Q499.13126 164.04868 498.70938 163.59555Q498.2875 163.1268 498.2875 162.15805ZM499.35 162.14243Q499.35 162.84555 499.52188 163.07993Q499.63126 163.26743 499.85 163.26743Q500.06876 163.26743 500.19376 163.07993Q500.35 162.84555 500.35 162.14243Q500.35 161.45493 500.19376 161.22055Q500.06876 161.03305 499.85 161.03305Q499.63126 161.03305 499.52188 161.20493Q499.35 161.45493 499.35 162.14243ZM500.89688 167.82993L499.88126 167.82993L503.69376 160.26743L504.67813 160.26743L500.89688 167.82993ZM503.11563 165.9393Q503.11563 164.98618 503.5375 164.51743Q503.95938 164.04868 504.69376 164.04868Q505.42813 164.04868 505.85 164.51743Q506.27188 164.98618 506.27188 165.9393Q506.27188 166.90805 505.85 167.3768Q505.42813 167.82993 504.70938 167.82993Q503.95938 167.82993 503.5375 167.3768Q503.11563 166.90805 503.11563 165.9393ZM504.17813 165.9393Q504.17813 166.64243 504.35 166.8768Q504.45938 167.04868 504.67813 167.04868Q504.89688 167.04868 505.02188 166.8768Q505.17813 166.64243 505.17813 165.9393Q505.17813 165.23618 505.02188 165.0018Q504.89688 164.82993 504.67813 164.82993Q504.45938 164.82993 504.35 165.0018Q504.17813 165.23618 504.17813 165.9393Z" fill-rule="nonzero"/><path stroke="#757575" stroke-width="1.0" stroke-linecap="butt" d="M506.85 156.04868L395.46667 156.04868L383.03055 167.16429" fill-rule="nonzero"/><path fill="#9e9e9e" d="M385.03055 167.16429C385.03055 166.05972 384.13513 165.16429 383.03055 165.16429C381.92596 165.16429 381.03055 166.05972 381.03055 167.16429C381.03055 168.26886 381.92596 169.16429 383.03055 169.16429C384.13513 169.16429 385.03055 168.26886 385.03055 167.16429" fill-rule="nonzero"/><path fill="#1a1a1a" d="M473.58438 173.39243L476.44376 173.39243Q477.2875 173.39243 477.70938 173.47055Q478.13126 173.53305 478.45938 173.76743Q478.7875 173.98618 479.00626 174.36118Q479.225 174.72055 479.225 175.1893Q479.225 175.6893 478.94376 176.11118Q478.67813 176.53305 478.225 176.7518Q478.88126 176.9393 479.225 177.39243Q479.58438 177.84555 479.58438 178.47055Q479.58438 178.95493 479.35 179.42368Q479.13126 179.8768 478.725 180.15805Q478.33438 180.4393 477.75626 180.5018Q477.39688 180.53305 476.02188 180.54868L473.58438 180.54868L473.58438 173.39243ZM475.02188 174.57993L475.02188 176.23618L475.975 176.23618Q476.81876 176.23618 477.02188 176.20493Q477.39688 176.17368 477.6 175.95493Q477.81876 175.73618 477.81876 175.39243Q477.81876 175.0643 477.63126 174.86118Q477.45938 174.64243 477.1 174.61118Q476.88126 174.57993 475.86563 174.57993L475.02188 174.57993ZM475.02188 177.42368L475.02188 179.34555L476.36563 179.34555Q477.14688 179.34555 477.35 179.29868Q477.67813 179.23618 477.88126 179.01743Q478.08438 178.78305 478.08438 178.40805Q478.08438 178.07993 477.92813 177.86118Q477.77188 177.6268 477.475 177.53305Q477.17813 177.42368 476.19376 177.42368L475.02188 177.42368ZM480.58438 180.54868L480.58438 173.39243L485.88126 173.39243L485.88126 174.59555L482.02188 174.59555L482.02188 176.1893L485.61563 176.1893L485.61563 177.39243L482.02188 177.39243L482.02188 179.34555L486.02188 179.34555L486.02188 180.54868L480.58438 180.54868ZM487.58438 180.54868L487.58438 173.39243L492.88126 173.39243L492.88126 174.59555L489.02188 174.59555L489.02188 176.1893L492.61563 176.1893L492.61563 177.39243L489.02188 177.39243L489.02188 179.34555L493.02188 179.34555L493.02188 180.54868L487.58438 180.54868ZM494.20938 178.22055L495.61563 178.07993Q495.74063 178.78305 496.13126 179.1268Q496.52188 179.45493 497.17813 179.45493Q497.88126 179.45493 498.225 179.15805Q498.58438 178.86118 498.58438 178.47055Q498.58438 178.22055 498.42813 178.04868Q498.2875 177.86118 497.9125 177.72055Q497.6625 177.64243 496.75626 177.40805Q495.6 177.1268 495.13126 176.70493Q494.475 176.11118 494.475 175.26743Q494.475 174.72055 494.77188 174.2518Q495.08438 173.76743 495.6625 173.51743Q496.25626 173.26743 497.08438 173.26743Q498.42813 173.26743 499.1 173.86118Q499.7875 174.45493 499.83438 175.4393L498.38126 175.5018Q498.2875 174.95493 497.975 174.72055Q497.67813 174.47055 497.06876 174.47055Q496.44376 174.47055 496.08438 174.72055Q495.85 174.89243 495.85 175.17368Q495.85 175.42368 496.06876 175.59555Q496.33438 175.82993 497.38126 176.07993Q498.44376 176.32993 498.94376 176.59555Q499.45938 176.86118 499.74063 177.32993Q500.0375 177.78305 500.0375 178.47055Q500.0375 179.07993 499.69376 179.6268Q499.35 180.15805 498.725 180.42368Q498.1 180.67368 497.1625 180.67368Q495.80313 180.67368 495.06876 180.04868Q494.35 179.42368 494.20938 178.22055ZM501.225 178.64243L502.55313 178.48618Q502.61563 179.0018 502.89688 179.26743Q503.17813 179.53305 503.56876 179.53305Q503.99063 179.53305 504.27188 179.22055Q504.56876 178.89243 504.56876 178.34555Q504.56876 177.82993 504.2875 177.53305Q504.02188 177.22055 503.61563 177.22055Q503.35 177.22055 502.99063 177.3143L503.14688 176.20493Q503.69376 176.22055 503.99063 175.97055Q504.2875 175.70493 504.2875 175.28305Q504.2875 174.92368 504.06876 174.70493Q503.85 174.48618 503.49063 174.48618Q503.14688 174.48618 502.89688 174.73618Q502.64688 174.97055 502.6 175.4393L501.33438 175.23618Q501.45938 174.57993 501.725 174.1893Q501.99063 173.79868 502.45938 173.57993Q502.94376 173.36118 503.5375 173.36118Q504.55313 173.36118 505.1625 174.0018Q505.6625 174.53305 505.6625 175.1893Q505.6625 176.14243 504.63126 176.70493Q505.24063 176.82993 505.6 177.29868Q505.975 177.7518 505.975 178.39243Q505.975 179.34555 505.2875 180.01743Q504.6 180.67368 503.58438 180.67368Q502.61563 180.67368 501.975 180.11118Q501.33438 179.54868 501.225 178.64243Z" fill-rule="nonzero"/><path fill="#9e9e9e" d="M483.27188 190.76743L483.27188 189.48618L487.975 189.48618L487.975 190.48618Q487.38126 191.04868 486.77188 192.1268Q486.17813 193.1893 485.86563 194.39243Q485.55313 195.59555 485.55313 196.54868L484.24063 196.54868Q484.27188 195.0643 484.85 193.51743Q485.42813 191.97055 486.39688 190.76743L483.27188 190.76743ZM489.5375 195.17368L490.9125 195.17368L490.9125 196.15805Q490.9125 196.7518 490.80313 197.09555Q490.69376 197.4393 490.4125 197.70493Q490.13126 197.98618 489.69376 198.14243L489.42813 197.57993Q489.83438 197.4393 490.00626 197.20493Q490.19376 196.97055 490.19376 196.54868L489.5375 196.54868L489.5375 195.17368ZM492.30313 194.89243L493.63126 194.7518Q493.67813 195.15805 493.88126 195.36118Q494.08438 195.54868 494.42813 195.54868Q494.85 195.54868 495.14688 195.15805Q495.44376 194.76743 495.5375 193.53305Q495.02188 194.1268 494.24063 194.1268Q493.39688 194.1268 492.77188 193.48618Q492.1625 192.82993 492.1625 191.78305Q492.1625 190.6893 492.80313 190.03305Q493.45938 189.36118 494.45938 189.36118Q495.55313 189.36118 496.24063 190.20493Q496.94376 191.04868 496.94376 192.97055Q496.94376 194.9393 496.20938 195.8143Q495.49063 196.67368 494.31876 196.67368Q493.49063 196.67368 492.95938 196.23618Q492.44376 195.78305 492.30313 194.89243ZM495.4125 191.89243Q495.4125 191.23618 495.1 190.8768Q494.80313 190.5018 494.39688 190.5018Q494.02188 190.5018 493.77188 190.79868Q493.52188 191.09555 493.52188 191.78305Q493.52188 192.47055 493.7875 192.79868Q494.06876 193.1268 494.475 193.1268Q494.86563 193.1268 495.13126 192.8143Q495.4125 192.5018 495.4125 191.89243ZM498.2875 191.15805Q498.2875 190.1893 498.70938 189.73618Q499.13126 189.26743 499.85 189.26743Q500.6 189.26743 501.02188 189.73618Q501.44376 190.1893 501.44376 191.15805Q501.44376 192.1268 501.02188 192.59555Q500.6 193.04868 499.88126 193.04868Q499.13126 193.04868 498.70938 192.59555Q498.2875 192.1268 498.2875 191.15805ZM499.35 191.14243Q499.35 191.84555 499.52188 192.07993Q499.63126 192.26743 499.85 192.26743Q500.06876 192.26743 500.19376 192.07993Q500.35 191.84555 500.35 191.14243Q500.35 190.45493 500.19376 190.22055Q500.06876 190.03305 499.85 190.03305Q499.63126 190.03305 499.52188 190.20493Q499.35 190.45493 499.35 191.14243ZM500.89688 196.82993L499.88126 196.82993L503.69376 189.26743L504.67813 189.26743L500.89688 196.82993ZM503.11563 194.9393Q503.11563 193.98618 503.5375 193.51743Q503.95938 193.04868 504.69376 193.04868Q505.42813 193.04868 505.85 193.51743Q506.27188 193.98618 506.27188 194.9393Q506.27188 195.90805 505.85 196.3768Q505.42813 196.82993 504.70938 196.82993Q503.95938 196.82993 503.5375 196.3768Q503.11563 195.90805 503.11563 194.9393ZM504.17813 194.9393Q504.17813 195.64243 504.35 195.8768Q504.45938 196.04868 504.67813 196.04868Q504.89688 196.04868 505.02188 195.8768Q505.17813 195.64243 505.17813 194.9393Q505.17813 194.23618 505.02188 194.0018Q504.89688 193.82993 504.67813 193.82993Q504.45938 193.82993 504.35 194.0018Q504.17813 194.23618 504.17813 194.9393Z" fill-rule="nonzero"/><path stroke="#757575" stroke-width="1.0" stroke-linecap="butt" d="M506.85 185.04868L395.46667 185.04868L374.66476 200.37556" fill-rule="nonzero"/><path fill="#9e9e9e" d="M376.66476 200.37556C376.66476 199.271 375.76935 198.37556 374.66476 198.37556C373.5602 198.37556 372.66476 199.271 372.66476 200.37556C372.66476 201.48013 373.5602 202.37556 374.66476 202.37556C375.76935 202.37556 376.66476 201.48013 376.66476 200.37556" fill-rule="nonzero"/><path fill="#1a1a1a" d="M475.9125 206.92368L475.9125 205.70493L479.02188 205.70493L479.02188 208.5643Q478.56876 209.0018 477.70938 209.34555Q476.85 209.67368 475.95938 209.67368Q474.83438 209.67368 473.99063 209.20493Q473.1625 208.72055 472.74063 207.84555Q472.33438 206.97055 472.33438 205.9393Q472.33438 204.82993 472.80313 203.97055Q473.27188 203.09555 474.1625 202.6268Q474.86563 202.26743 475.88126 202.26743Q477.20938 202.26743 477.95938 202.82993Q478.70938 203.39243 478.92813 204.3768L477.49063 204.64243Q477.35 204.11118 476.92813 203.8143Q476.50626 203.5018 475.88126 203.5018Q474.94376 203.5018 474.38126 204.11118Q473.81876 204.70493 473.81876 205.89243Q473.81876 207.15805 474.38126 207.79868Q474.94376 208.4393 475.86563 208.4393Q476.31876 208.4393 476.77188 208.26743Q477.24063 208.07993 477.56876 207.82993L477.56876 206.92368L475.9125 206.92368ZM480.58438 209.54868L480.58438 202.39243L483.63126 202.39243Q484.77188 202.39243 485.2875 202.59555Q485.81876 202.78305 486.13126 203.28305Q486.44376 203.76743 486.44376 204.39243Q486.44376 205.20493 485.95938 205.73618Q485.49063 206.2518 484.55313 206.39243Q485.02188 206.65805 485.31876 206.98618Q485.63126 207.3143 486.14688 208.15805L487.02188 209.54868L485.2875 209.54868L484.24063 207.98618Q483.69376 207.15805 483.475 206.9393Q483.27188 206.72055 483.0375 206.64243Q482.81876 206.5643 482.31876 206.5643L482.02188 206.5643L482.02188 209.54868L480.58438 209.54868ZM482.02188 205.42368L483.1 205.42368Q484.13126 205.42368 484.39688 205.32993Q484.6625 205.23618 484.80313 205.03305Q484.94376 204.8143 484.94376 204.48618Q484.94376 204.1268 484.75626 203.90805Q484.56876 203.6893 484.20938 203.6268Q484.0375 203.59555 483.1625 203.59555L482.02188 203.59555L482.02188 205.42368ZM487.6 209.54868L487.6 202.39243L489.00626 202.39243L491.92813 207.17368L491.92813 202.39243L493.27188 202.39243L493.27188 209.54868L491.81876 209.54868L488.92813 204.8768L488.92813 209.54868L487.6 209.54868ZM494.56876 202.39243L497.20938 202.39243Q498.11563 202.39243 498.58438 202.53305Q499.20938 202.70493 499.64688 203.1893Q500.1 203.65805 500.33438 204.34555Q500.56876 205.03305 500.56876 206.03305Q500.56876 206.92368 500.35 207.5643Q500.08438 208.34555 499.58438 208.82993Q499.20938 209.1893 498.56876 209.39243Q498.1 209.54868 497.2875 209.54868L494.56876 209.54868L494.56876 202.39243ZM496.02188 203.59555L496.02188 208.34555L497.1 208.34555Q497.70938 208.34555 497.975 208.26743Q498.31876 208.1893 498.55313 207.98618Q498.7875 207.76743 498.92813 207.28305Q499.08438 206.79868 499.08438 205.97055Q499.08438 205.14243 498.92813 204.70493Q498.7875 204.2518 498.52188 204.0018Q498.25626 203.7518 497.85 203.67368Q497.55313 203.59555 496.6625 203.59555L496.02188 203.59555ZM501.225 207.64243L502.55313 207.48618Q502.61563 208.0018 502.89688 208.26743Q503.17813 208.53305 503.56876 208.53305Q503.99063 208.53305 504.27188 208.22055Q504.56876 207.89243 504.56876 207.34555Q504.56876 206.82993 504.2875 206.53305Q504.02188 206.22055 503.61563 206.22055Q503.35 206.22055 502.99063 206.3143L503.14688 205.20493Q503.69376 205.22055 503.99063 204.97055Q504.2875 204.70493 504.2875 204.28305Q504.2875 203.92368 504.06876 203.70493Q503.85 203.48618 503.49063 203.48618Q503.14688 203.48618 502.89688 203.73618Q502.64688 203.97055 502.6 204.4393L501.33438 204.23618Q501.45938 203.57993 501.725 203.1893Q501.99063 202.79868 502.45938 202.57993Q502.94376 202.36118 503.5375 202.36118Q504.55313 202.36118 505.1625 203.0018Q505.6625 203.53305 505.6625 204.1893Q505.6625 205.14243 504.63126 205.70493Q505.24063 205.82993 505.6 206.29868Q505.975 206.7518 505.975 207.39243Q505.975 208.34555 505.2875 209.01743Q504.6 209.67368 503.58438 209.67368Q502.61563 209.67368 501.975 209.11118Q501.33438 208.54868 501.225 207.64243Z" fill-rule="nonzero"/><path fill="#9e9e9e" d="M486.7875 225.54868L485.4125 225.54868L485.4125 220.3768Q484.6625 221.07993 483.64688 221.42368L483.64688 220.17368Q484.17813 220.0018 484.80313 219.51743Q485.44376 219.01743 485.67813 218.36118L486.7875 218.36118L486.7875 225.54868ZM489.5375 224.17368L490.9125 224.17368L490.9125 225.15805Q490.9125 225.7518 490.80313 226.09555Q490.69376 226.4393 490.4125 226.70493Q490.13126 226.98618 489.69376 227.14243L489.42813 226.57993Q489.83438 226.4393 490.00626 226.20493Q490.19376 225.97055 490.19376 225.54868L489.5375 225.54868L489.5375 224.17368ZM496.92813 220.14243L495.6 220.28305Q495.55313 219.8768 495.33438 219.6893Q495.13126 219.48618 494.80313 219.48618Q494.38126 219.48618 494.06876 219.8768Q493.77188 220.26743 493.69376 221.5018Q494.20938 220.89243 494.975 220.89243Q495.83438 220.89243 496.44376 221.54868Q497.05313 222.20493 497.05313 223.23618Q497.05313 224.34555 496.4125 225.01743Q495.77188 225.67368 494.75626 225.67368Q493.67813 225.67368 492.975 224.82993Q492.27188 223.98618 492.27188 222.0643Q492.27188 220.09555 492.99063 219.23618Q493.725 218.36118 494.89688 218.36118Q495.70938 218.36118 496.24063 218.8143Q496.77188 219.26743 496.92813 220.14243ZM493.81876 223.14243Q493.81876 223.79868 494.11563 224.17368Q494.42813 224.53305 494.81876 224.53305Q495.20938 224.53305 495.45938 224.23618Q495.70938 223.9393 495.70938 223.2518Q495.70938 222.5643 495.42813 222.23618Q495.1625 221.90805 494.75626 221.90805Q494.36563 221.90805 494.08438 222.22055Q493.81876 222.53305 493.81876 223.14243ZM498.2875 220.15805Q498.2875 219.1893 498.70938 218.73618Q499.13126 218.26743 499.85 218.26743Q500.6 218.26743 501.02188 218.73618Q501.44376 219.1893 501.44376 220.15805Q501.44376 221.1268 501.02188 221.59555Q500.6 222.04868 499.88126 222.04868Q499.13126 222.04868 498.70938 221.59555Q498.2875 221.1268 498.2875 220.15805ZM499.35 220.14243Q499.35 220.84555 499.52188 221.07993Q499.63126 221.26743 499.85 221.26743Q500.06876 221.26743 500.19376 221.07993Q500.35 220.84555 500.35 220.14243Q500.35 219.45493 500.19376 219.22055Q500.06876 219.03305 499.85 219.03305Q499.63126 219.03305 499.52188 219.20493Q499.35 219.45493 499.35 220.14243ZM500.89688 225.82993L499.88126 225.82993L503.69376 218.26743L504.67813 218.26743L500.89688 225.82993ZM503.11563 223.9393Q503.11563 222.98618 503.5375 222.51743Q503.95938 222.04868 504.69376 222.04868Q505.42813 222.04868 505.85 222.51743Q506.27188 222.98618 506.27188 223.9393Q506.27188 224.90805 505.85 225.3768Q505.42813 225.82993 504.70938 225.82993Q503.95938 225.82993 503.5375 225.3768Q503.11563 224.90805 503.11563 223.9393ZM504.17813 223.9393Q504.17813 224.64243 504.35 224.8768Q504.45938 225.04868 504.67813 225.04868Q504.89688 225.04868 505.02188 224.8768Q505.17813 224.64243 505.17813 223.9393Q505.17813 223.23618 505.02188 223.0018Q504.89688 222.82993 504.67813 222.82993Q504.45938 222.82993 504.35 223.0018Q504.17813 223.23618 504.17813 223.9393Z" fill-rule="nonzero"/><path stroke="#757575" stroke-width="1.0" stroke-linecap="butt" d="M506.85 214.04868L395.46667 214.04868L356.54596 222.34346" fill-rule="nonzero"/><path fill="#9e9e9e" d="M358.54596 222.34346C358.54596 221.23889 357.6505 220.34346 356.54596 220.34346C355.44138 220.34346 354.54596 221.23889 354.54596 222.34346C354.54596 223.44803 355.44138 224.34346 356.54596 224.34346C357.6505 224.34346 358.54596 223.44803 358.54596 222.34346" fill-rule="nonzero"/><path fill="#1a1a1a" d="M483.1625 235.92368L484.55313 236.36118Q484.24063 237.53305 483.49063 238.11118Q482.74063 238.67368 481.58438 238.67368Q480.1625 238.67368 479.24063 237.70493Q478.31876 236.72055 478.31876 235.03305Q478.31876 233.2518 479.24063 232.26743Q480.1625 231.26743 481.67813 231.26743Q482.99063 231.26743 483.80313 232.04868Q484.30313 232.5018 484.5375 233.36118L483.11563 233.70493Q482.975 233.14243 482.56876 232.82993Q482.17813 232.5018 481.6 232.5018Q480.80313 232.5018 480.30313 233.07993Q479.81876 233.64243 479.81876 234.92368Q479.81876 236.28305 480.30313 236.86118Q480.7875 237.4393 481.56876 237.4393Q482.14688 237.4393 482.55313 237.07993Q482.975 236.70493 483.1625 235.92368ZM485.5375 238.54868L485.5375 231.39243L486.975 231.39243L486.975 238.54868L485.5375 238.54868ZM488.58438 238.54868L488.58438 231.39243L493.88126 231.39243L493.88126 232.59555L490.02188 232.59555L490.02188 234.1893L493.61563 234.1893L493.61563 235.39243L490.02188 235.39243L490.02188 237.34555L494.02188 237.34555L494.02188 238.54868L488.58438 238.54868ZM495.61563 238.54868L495.61563 231.45493L497.06876 231.45493L497.06876 237.34555L500.6625 237.34555L500.6625 238.54868L495.61563 238.54868ZM501.225 236.64243L502.55313 236.48618Q502.61563 237.0018 502.89688 237.26743Q503.17813 237.53305 503.56876 237.53305Q503.99063 237.53305 504.27188 237.22055Q504.56876 236.89243 504.56876 236.34555Q504.56876 235.82993 504.2875 235.53305Q504.02188 235.22055 503.61563 235.22055Q503.35 235.22055 502.99063 235.3143L503.14688 234.20493Q503.69376 234.22055 503.99063 233.97055Q504.2875 233.70493 504.2875 233.28305Q504.2875 232.92368 504.06876 232.70493Q503.85 232.48618 503.49063 232.48618Q503.14688 232.48618 502.89688 232.73618Q502.64688 232.97055 502.6 233.4393L501.33438 233.23618Q501.45938 232.57993 501.725 232.1893Q501.99063 231.79868 502.45938 231.57993Q502.94376 231.36118 503.5375 231.36118Q504.55313 231.36118 505.1625 232.0018Q505.6625 232.53305 505.6625 233.1893Q505.6625 234.14243 504.63126 234.70493Q505.24063 234.82993 505.6 235.29868Q505.975 235.7518 505.975 236.39243Q505.975 237.34555 505.2875 238.01743Q504.6 238.67368 503.58438 238.67368Q502.61563 238.67368 501.975 238.11118Q501.33438 237.54868 501.225 236.64243Z" fill-rule="nonzero"/><path fill="#9e9e9e" d="M483.225 252.64243L484.55313 252.48618Q484.61563 253.0018 484.89688 253.26743Q485.17813 253.53305 485.56876 253.53305Q485.99063 253.53305 486.27188 253.22055Q486.56876 252.89243 486.56876 252.34555Q486.56876 251.82993 486.2875 251.53305Q486.02188 251.22055 485.61563 251.22055Q485.35 251.22055 484.99063 251.3143L485.14688 250.20493Q485.69376 250.22055 485.99063 249.97055Q486.2875 249.70493 486.2875 249.28305Q486.2875 248.92368 486.06876 248.70493Q485.85 248.48618 485.49063 248.48618Q485.14688 248.48618 484.89688 248.73618Q484.64688 248.97055 484.6 249.4393L483.33438 249.23618Q483.45938 248.57993 483.725 248.1893Q483.99063 247.79868 484.45938 247.57993Q484.94376 247.36118 485.5375 247.36118Q486.55313 247.36118 487.1625 248.0018Q487.6625 248.53305 487.6625 249.1893Q487.6625 250.14243 486.63126 250.70493Q487.24063 250.82993 487.6 251.29868Q487.975 251.7518 487.975 252.39243Q487.975 253.34555 487.2875 254.01743Q486.6 254.67368 485.58438 254.67368Q484.61563 254.67368 483.975 254.11118Q483.33438 253.54868 483.225 252.64243ZM489.5375 253.17368L490.9125 253.17368L490.9125 254.15805Q490.9125 254.7518 490.80313 255.09555Q490.69376 255.4393 490.4125 255.70493Q490.13126 255.98618 489.69376 256.14243L489.42813 255.57993Q489.83438 255.4393 490.00626 255.20493Q490.19376 254.97055 490.19376 254.54868L489.5375 254.54868L489.5375 253.17368ZM496.9125 253.26743L496.9125 254.54868L492.1 254.54868Q492.17813 253.82993 492.56876 253.1893Q492.95938 252.53305 494.11563 251.45493Q495.0375 250.59555 495.25626 250.28305Q495.5375 249.86118 495.5375 249.45493Q495.5375 248.98618 495.2875 248.7518Q495.0375 248.5018 494.6 248.5018Q494.17813 248.5018 493.9125 248.76743Q493.6625 249.01743 493.63126 249.61118L492.25626 249.48618Q492.38126 248.34555 493.02188 247.86118Q493.67813 247.36118 494.63126 247.36118Q495.69376 247.36118 496.30313 247.9393Q496.9125 248.5018 496.9125 249.34555Q496.9125 249.82993 496.74063 250.26743Q496.56876 250.70493 496.19376 251.1893Q495.94376 251.5018 495.2875 252.11118Q494.63126 252.70493 494.45938 252.90805Q494.2875 253.09555 494.17813 253.26743L496.9125 253.26743ZM498.2875 249.15805Q498.2875 248.1893 498.70938 247.73618Q499.13126 247.26743 499.85 247.26743Q500.6 247.26743 501.02188 247.73618Q501.44376 248.1893 501.44376 249.15805Q501.44376 250.1268 501.02188 250.59555Q500.6 251.04868 499.88126 251.04868Q499.13126 251.04868 498.70938 250.59555Q498.2875 250.1268 498.2875 249.15805ZM499.35 249.14243Q499.35 249.84555 499.52188 250.07993Q499.63126 250.26743 499.85 250.26743Q500.06876 250.26743 500.19376 250.07993Q500.35 249.84555 500.35 249.14243Q500.35 248.45493 500.19376 248.22055Q500.06876 248.03305 499.85 248.03305Q499.63126 248.03305 499.52188 248.20493Q499.35 248.45493 499.35 249.14243ZM500.89688 254.82993L499.88126 254.82993L503.69376 247.26743L504.67813 247.26743L500.89688 254.82993ZM503.11563 252.9393Q503.11563 251.98618 503.5375 251.51743Q503.95938 251.04868 504.69376 251.04868Q505.42813 251.04868 505.85 251.51743Q506.27188 251.98618 506.27188 252.9393Q506.27188 253.90805 505.85 254.3768Q505.42813 254.82993 504.70938 254.82993Q503.95938 254.82993 503.5375 254.3768Q503.11563 253.90805 503.11563 252.9393ZM504.17813 252.9393Q504.17813 253.64243 504.35 253.8768Q504.45938 254.04868 504.67813 254.04868Q504.89688 254.04868 505.02188 253.8768Q505.17813 253.64243 505.17813 252.9393Q505.17813 252.23618 505.02188 252.0018Q504.89688 251.82993 504.67813 251.82993Q504.45938 251.82993 504.35 252.0018Q504.17813 252.23618 504.17813 252.9393Z" fill-rule="nonzero"/><path stroke="#757575" stroke-width="1.0" stroke-linecap="butt" d="M506.85 243.04868L395.46667 243.04868L344.18747 231.66696" fill-rule="nonzero"/><path fill="#9e9e9e" d="M346.18747 231.66696C346.18747 230.5624 345.29202 229.66696 344.18747 229.66696C343.0829 229.66696 342.18747 230.5624 342.18747 231.66696C342.18747 232.77153 343.0829 233.66696 344.18747 233.66696C345.29202 233.66696 346.18747 232.77153 346.18747 231.66696" fill-rule="nonzero"/><path fill="#1a1a1a" d="M473.20938 265.22055L474.61563 265.07993Q474.74063 265.78305 475.13126 266.1268Q475.52188 266.45493 476.17813 266.45493Q476.88126 266.45493 477.225 266.15805Q477.58438 265.86118 477.58438 265.47055Q477.58438 265.22055 477.42813 265.04868Q477.2875 264.86118 476.9125 264.72055Q476.6625 264.64243 475.75626 264.40805Q474.6 264.1268 474.13126 263.70493Q473.475 263.11118 473.475 262.26743Q473.475 261.72055 473.77188 261.2518Q474.08438 260.76743 474.6625 260.51743Q475.25626 260.26743 476.08438 260.26743Q477.42813 260.26743 478.1 260.86118Q478.7875 261.45493 478.83438 262.4393L477.38126 262.5018Q477.2875 261.95493 476.975 261.72055Q476.67813 261.47055 476.06876 261.47055Q475.44376 261.47055 475.08438 261.72055Q474.85 261.89243 474.85 262.17368Q474.85 262.42368 475.06876 262.59555Q475.33438 262.82993 476.38126 263.07993Q477.44376 263.32993 477.94376 263.59555Q478.45938 263.86118 478.74063 264.32993Q479.0375 264.78305 479.0375 265.47055Q479.0375 266.07993 478.69376 266.6268Q478.35 267.15805 477.725 267.42368Q477.1 267.67368 476.1625 267.67368Q474.80313 267.67368 474.06876 267.04868Q473.35 266.42368 473.20938 265.22055ZM487.0375 267.54868L485.45938 267.54868L484.83438 265.92368L481.975 265.92368L481.38126 267.54868L479.85 267.54868L482.63126 260.39243L484.1625 260.39243L487.0375 267.54868ZM484.36563 264.72055L483.38126 262.0643L482.4125 264.72055L484.36563 264.72055ZM487.58438 267.54868L487.58438 260.39243L489.89688 260.39243Q491.20938 260.39243 491.61563 260.5018Q492.225 260.65805 492.64688 261.20493Q493.06876 261.73618 493.06876 262.59555Q493.06876 263.2518 492.81876 263.70493Q492.58438 264.14243 492.20938 264.40805Q491.85 264.65805 491.45938 264.7518Q490.94376 264.84555 489.95938 264.84555L489.02188 264.84555L489.02188 267.54868L487.58438 267.54868ZM489.02188 261.59555L489.02188 263.6268L489.81876 263.6268Q490.6625 263.6268 490.94376 263.51743Q491.24063 263.40805 491.39688 263.17368Q491.56876 262.92368 491.56876 262.61118Q491.56876 262.22055 491.33438 261.97055Q491.11563 261.72055 490.75626 261.64243Q490.50626 261.59555 489.725 261.59555L489.02188 261.59555ZM494.58438 267.54868L494.58438 260.39243L497.63126 260.39243Q498.77188 260.39243 499.2875 260.59555Q499.81876 260.78305 500.13126 261.28305Q500.44376 261.76743 500.44376 262.39243Q500.44376 263.20493 499.95938 263.73618Q499.49063 264.2518 498.55313 264.39243Q499.02188 264.65805 499.31876 264.98618Q499.63126 265.3143 500.14688 266.15805L501.02188 267.54868L499.2875 267.54868L498.24063 265.98618Q497.69376 265.15805 497.475 264.9393Q497.27188 264.72055 497.0375 264.64243Q496.81876 264.5643 496.31876 264.5643L496.02188 264.5643L496.02188 267.54868L494.58438 267.54868ZM496.02188 263.42368L497.1 263.42368Q498.13126 263.42368 498.39688 263.32993Q498.6625 263.23618 498.80313 263.03305Q498.94376 262.8143 498.94376 262.48618Q498.94376 262.1268 498.75626 261.90805Q498.56876 261.6893 498.20938 261.6268Q498.0375 261.59555 497.1625 261.59555L496.02188 261.59555L496.02188 263.42368ZM501.225 265.64243L502.55313 265.48618Q502.61563 266.0018 502.89688 266.26743Q503.17813 266.53305 503.56876 266.53305Q503.99063 266.53305 504.27188 266.22055Q504.56876 265.89243 504.56876 265.34555Q504.56876 264.82993 504.2875 264.53305Q504.02188 264.22055 503.61563 264.22055Q503.35 264.22055 502.99063 264.3143L503.14688 263.20493Q503.69376 263.22055 503.99063 262.97055Q504.2875 262.70493 504.2875 262.28305Q504.2875 261.92368 504.06876 261.70493Q503.85 261.48618 503.49063 261.48618Q503.14688 261.48618 502.89688 261.73618Q502.64688 261.97055 502.6 262.4393L501.33438 262.23618Q501.45938 261.57993 501.725 261.1893Q501.99063 260.79868 502.45938 260.57993Q502.94376 260.36118 503.5375 260.36118Q504.55313 260.36118 505.1625 261.0018Q505.6625 261.53305 505.6625 262.1893Q505.6625 263.14243 504.63126 263.70493Q505.24063 263.82993 505.6 264.29868Q505.975 264.7518 505.975 265.39243Q505.975 266.34555 505.2875 267.01743Q504.6 267.67368 503.58438 267.67368Q502.61563 267.67368 501.975 267.11118Q501.33438 266.54868 501.225 265.64243Z" fill-rule="nonzero"/><path fill="#9e9e9e" d="M480.7875 283.54868L479.4125 283.54868L479.4125 278.3768Q478.6625 279.07993 477.64688 279.42368L477.64688 278.17368Q478.17813 278.0018 478.80313 277.51743Q479.44376 277.01743 479.67813 276.36118L480.7875 276.36118L480.7875 283.54868ZM483.2875 281.70493L484.6625 281.5643Q484.725 282.03305 485.00626 282.29868Q485.30313 282.5643 485.67813 282.5643Q486.1 282.5643 486.39688 282.22055Q486.69376 281.8768 486.69376 281.17368Q486.69376 280.51743 486.39688 280.1893Q486.1 279.84555 485.63126 279.84555Q485.0375 279.84555 484.56876 280.3768L483.45938 280.22055L484.1625 276.48618L487.7875 276.48618L487.7875 277.76743L485.20938 277.76743L484.99063 278.98618Q485.44376 278.7518 485.92813 278.7518Q486.83438 278.7518 487.475 279.42368Q488.11563 280.07993 488.11563 281.14243Q488.11563 282.03305 487.6 282.72055Q486.89688 283.67368 485.6625 283.67368Q484.6625 283.67368 484.0375 283.14243Q483.4125 282.61118 483.2875 281.70493ZM489.5375 282.17368L490.9125 282.17368L490.9125 283.15805Q490.9125 283.7518 490.80313 284.09555Q490.69376 284.4393 490.4125 284.70493Q490.13126 284.98618 489.69376 285.14243L489.42813 284.57993Q489.83438 284.4393 490.00626 284.20493Q490.19376 283.97055 490.19376 283.54868L489.5375 283.54868L489.5375 282.17368ZM492.30313 281.89243L493.63126 281.7518Q493.67813 282.15805 493.88126 282.36118Q494.08438 282.54868 494.42813 282.54868Q494.85 282.54868 495.14688 282.15805Q495.44376 281.76743 495.5375 280.53305Q495.02188 281.1268 494.24063 281.1268Q493.39688 281.1268 492.77188 280.48618Q492.1625 279.82993 492.1625 278.78305Q492.1625 277.6893 492.80313 277.03305Q493.45938 276.36118 494.45938 276.36118Q495.55313 276.36118 496.24063 277.20493Q496.94376 278.04868 496.94376 279.97055Q496.94376 281.9393 496.20938 282.8143Q495.49063 283.67368 494.31876 283.67368Q493.49063 283.67368 492.95938 283.23618Q492.44376 282.78305 492.30313 281.89243ZM495.4125 278.89243Q495.4125 278.23618 495.1 277.8768Q494.80313 277.5018 494.39688 277.5018Q494.02188 277.5018 493.77188 277.79868Q493.52188 278.09555 493.52188 278.78305Q493.52188 279.47055 493.7875 279.79868Q494.06876 280.1268 494.475 280.1268Q494.86563 280.1268 495.13126 279.8143Q495.4125 279.5018 495.4125 278.89243ZM498.2875 278.15805Q498.2875 277.1893 498.70938 276.73618Q499.13126 276.26743 499.85 276.26743Q500.6 276.26743 501.02188 276.73618Q501.44376 277.1893 501.44376 278.15805Q501.44376 279.1268 501.02188 279.59555Q500.6 280.04868 499.88126 280.04868Q499.13126 280.04868 498.70938 279.59555Q498.2875 279.1268 498.2875 278.15805ZM499.35 278.14243Q499.35 278.84555 499.52188 279.07993Q499.63126 279.26743 499.85 279.26743Q500.06876 279.26743 500.19376 279.07993Q500.35 278.84555 500.35 278.14243Q500.35 277.45493 500.19376 277.22055Q500.06876 277.03305 499.85 277.03305Q499.63126 277.03305 499.52188 277.20493Q499.35 277.45493 499.35 278.14243ZM500.89688 283.82993L499.88126 283.82993L503.69376 276.26743L504.67813 276.26743L500.89688 283.82993ZM503.11563 281.9393Q503.11563 280.98618 503.5375 280.51743Q503.95938 280.04868 504.69376 280.04868Q505.42813 280.04868 505.85 280.51743Q506.27188 280.98618 506.27188 281.9393Q506.27188 282.90805 505.85 283.3768Q505.42813 283.82993 504.70938 283.82993Q503.95938 283.82993 503.5375 283.3768Q503.11563 282.90805 503.11563 281.9393ZM504.17813 281.9393Q504.17813 282.64243 504.35 282.8768Q504.45938 283.04868 504.67813 283.04868Q504.89688 283.04868 505.02188 282.8768Q505.17813 282.64243 505.17813 281.9393Q505.17813 281.23618 505.02188 281.0018Q504.89688 280.82993 504.67813 280.82993Q504.45938 280.82993 504.35 281.0018Q504.17813 281.23618 504.17813 281.9393Z" fill-rule="nonzero"/><path stroke="#757575" stroke-width="1.0" stroke-linecap="butt" d="M506.85 272.04868L395.46667 272.04868L267.5597 254.27788" fill-rule="nonzero"/><path fill="#9e9e9e" d="M269.5597 254.27788C269.5597 253.17331 268.66425 252.27788 267.5597 252.27788C266.4551 252.27788 265.5597 253.17331 265.5597 254.27788C265.5597 255.38245 266.4551 256.2779 267.5597 256.2779C268.66425 256.2779 269.5597 255.38245 269.5597 254.27788" fill-rule="nonzero"/><path fill="#757575" d="M16.11875 35.15L21.61875 20.837502L23.665625 20.837502L29.525 35.15L27.36875 35.15L25.696875 30.806252L19.7125 30.806252L18.134375 35.15L16.11875 35.15ZM20.259375 29.275002L25.103125 29.275002L23.61875 25.306252Q22.93125 23.493752 22.603125 22.337502Q22.321875 23.712502 21.821875 25.071877L20.259375 29.275002ZM37.24375 31.353127L38.9625 31.571877Q38.68125 33.36875 37.509377 34.384377Q36.353127 35.384377 34.65 35.384377Q32.525 35.384377 31.228125 33.99375Q29.93125 32.603127 29.93125 30.009377Q29.93125 28.321877 30.478125 27.071877Q31.040625 25.806252 32.18125 25.181252Q33.321877 24.540627 34.665627 24.540627Q36.353127 24.540627 37.415627 25.400002Q38.49375 26.259377 38.80625 27.821877L37.0875 28.087502Q36.853127 27.040627 36.228127 26.525002Q35.603127 25.993752 34.728127 25.993752Q33.4 25.993752 32.571877 26.946877Q31.74375 27.900002 31.74375 29.946877Q31.74375 32.040627 32.540627 32.99375Q33.3375 33.93125 34.634377 33.93125Q35.665627 33.93125 36.353127 33.30625Q37.05625 32.665627 37.24375 31.353127ZM33.259377 36.65L33.775 34.93125L35.071877 34.93125L34.759377 35.978127Q35.5875 36.071877 36.009377 36.478127Q36.43125 36.9 36.43125 37.4Q36.43125 38.134377 35.728127 38.696877Q35.025 39.259377 33.603127 39.259377Q32.80625 39.259377 32.196877 39.15L32.30625 38.009377Q32.93125 38.040627 33.228127 38.040627Q34.134377 38.040627 34.509377 37.790627Q34.790627 37.5875 34.790627 37.30625Q34.790627 37.134377 34.68125 36.99375Q34.571877 36.853127 34.259377 36.759377Q33.9625 36.665627 33.259377 36.65ZM39.821877 29.962502Q39.821877 27.087502 41.415627 25.696877Q42.759377 24.540627 44.68125 24.540627Q46.821877 24.540627 48.165627 25.946877Q49.525 27.353127 49.525 29.821877Q49.525 31.821877 48.93125 32.978127Q48.3375 34.11875 47.18125 34.759377Q46.040627 35.384377 44.68125 35.384377Q42.49375 35.384377 41.15 33.99375Q39.821877 32.5875 39.821877 29.962502ZM41.61875 29.962502Q41.61875 31.962502 42.478127 32.946877Q43.353127 33.93125 44.68125 33.93125Q45.99375 33.93125 46.853127 32.946877Q47.728127 31.946877 47.728127 29.900002Q47.728127 27.978127 46.853127 26.993752Q45.978127 25.993752 44.68125 25.993752Q43.353127 25.993752 42.478127 26.993752Q41.61875 27.978127 41.61875 29.962502ZM41.2125 23.243752Q41.2125 22.228127 41.775 21.618752Q42.3375 21.025002 43.196877 21.025002Q43.80625 21.025002 44.853127 21.540627Q45.43125 21.837502 45.775 21.837502Q46.0875 21.837502 46.24375 21.665627Q46.415627 21.493752 46.478127 20.993752L47.759377 20.993752Q47.728127 22.103127 47.196877 22.665627Q46.665627 23.212502 45.8375 23.212502Q45.228127 23.212502 44.2125 22.665627Q43.55625 22.321877 43.259377 22.321877Q42.93125 22.321877 42.728127 22.556252Q42.509377 22.790627 42.525 23.243752L41.2125 23.243752ZM58.571877 31.806252L60.384377 32.040627Q59.9625 33.61875 58.790627 34.509377Q57.634377 35.384377 55.821877 35.384377Q53.55625 35.384377 52.2125 33.99375Q50.884377 32.5875 50.884377 30.056252Q50.884377 27.431252 52.228127 25.993752Q53.571877 24.540627 55.728127 24.540627Q57.80625 24.540627 59.11875 25.962502Q60.446877 27.368752 60.446877 29.946877Q60.446877 30.103127 60.43125 30.415627L52.696877 30.415627Q52.790627 32.11875 53.665627 33.025Q54.540627 33.93125 55.8375 33.93125Q56.80625 33.93125 57.478127 33.43125Q58.165627 32.915627 58.571877 31.806252ZM52.790627 28.962502L58.5875 28.962502Q58.478127 27.665627 57.93125 27.009377Q57.0875 25.993752 55.74375 25.993752Q54.540627 25.993752 53.7125 26.806252Q52.884377 27.603127 52.790627 28.962502ZM61.759377 32.05625L63.509377 31.775002Q63.65 32.821877 64.32188 33.384377Q64.99375 33.93125 66.19688 33.93125Q67.4 33.93125 67.97813 33.446877Q68.57188 32.946877 68.57188 32.290627Q68.57188 31.696877 68.05625 31.353127Q67.69688 31.118752 66.25938 30.759377Q64.32188 30.259377 63.571877 29.915627Q62.8375 29.556252 62.446877 28.931252Q62.05625 28.290627 62.05625 27.525002Q62.05625 26.837502 62.36875 26.243752Q62.696877 25.650002 63.24375 25.259377Q63.65 24.962502 64.35313 24.759377Q65.07188 24.540627 65.88438 24.540627Q67.10313 24.540627 68.025 24.900002Q68.94688 25.243752 69.38438 25.853127Q69.82188 26.446877 69.99375 27.446877L68.275 27.681252Q68.15 26.884377 67.5875 26.446877Q67.025 25.993752 66.00938 25.993752Q64.79063 25.993752 64.275 26.400002Q63.759377 26.790627 63.759377 27.321877Q63.759377 27.665627 63.978127 27.946877Q64.18125 28.228127 64.65 28.415627Q64.91563 28.509377 66.19688 28.853127Q68.07188 29.353127 68.80625 29.681252Q69.54063 29.993752 69.9625 30.603127Q70.38438 31.196877 70.38438 32.103127Q70.38438 32.978127 69.86875 33.759377Q69.35313 34.540627 68.38438 34.9625Q67.41563 35.384377 66.19688 35.384377Q64.18125 35.384377 63.11875 34.540627Q62.05625 33.696877 61.759377 32.05625Z" fill-rule="nonzero"/></svg>