<svg version="1.1" viewBox="0.0 0.0 448.0 277.0" fill="none" stroke="none" stroke-linecap="square" stroke-miterlimit="10" width="448" height="277" xmlns:xlink="http://www.w3.org/1999/xlink" xmlns="http://www.w3.org/2000/svg"><path fill="#ffffff" d="M0 0L448.0 0L448.0 277.0L0 277.0L0 0Z" fill-rule="nonzero"/><path fill="#171616" d="M348.65 147.84875C348.65 150.25365 348.50797 152.65752 348.22424 155.05421L348.22424 136.3567C348.50797 133.96002 348.65 131.55615 348.65 129.15125Z" fill-rule="nonzero"/><path fill="#171616" d="M224.0 85.52375C258.42114 85.52375 286.325 105.05645 286.325 129.15125L286.325 147.84875C286.325 123.753944 258.42114 104.22125 224.0 104.22125Z" fill-rule="nonzero"/><path fill="#211f20" d="M224.0 41.89625C258.84848 41.89625 292.10574 52.107845 315.70798 70.055046C339.3102 88.00224 351.10202 112.0461 348.22424 136.3567L286.11212 132.75398C287.55103 120.59867 281.65512 108.57675 269.854 99.60315C258.0529 90.62955 241.42424 85.52375 224.0 85.52375Z" fill-rule="nonzero"/><path fill="#6d1b10" d="M348.22424 155.05421C344.7487 184.41487 320.34174 210.5652 283.32684 224.58723L283.32684 205.88972C320.34174 191.8677 344.7487 165.71738 348.22424 136.3567Z" fill-rule="nonzero"/><path fill="#9c2717" d="M348.22424 136.3567C344.7487 165.71738 320.34174 191.8677 283.32684 205.88972L253.66342 167.5205C272.17087 160.50948 284.37436 147.43431 286.11212 132.75398Z" fill-rule="nonzero"/><path fill="#b08403" d="M283.32684 224.58723C271.21497 229.17546 258.10062 232.32698 244.51671 233.91371L244.51671 215.2162C258.10062 213.62949 271.21497 210.47797 283.32684 205.88972Z" fill-rule="nonzero"/><path fill="#fbbc04" d="M283.32684 205.88972C271.21497 210.47797 258.10062 213.62949 244.51671 215.2162L234.25836 172.18373C241.05031 171.39037 247.60748 169.8146 253.66342 167.5205Z" fill-rule="nonzero"/><path fill="#820821" d="M203.7631 87.88761C210.27588 86.322525 217.11414 85.52375 224.0 85.52375L224.0 104.22125C217.11414 104.22125 210.27588 105.02002 203.7631 106.585106Z" fill-rule="nonzero"/><path fill="#ba0c2f" d="M183.52621 46.623966C196.55174 43.493797 210.22827 41.89625 224.0 41.89625L224.0 85.52375C217.11414 85.52375 210.27588 86.322525 203.7631 87.88761Z" fill-rule="nonzero"/><path fill="#3f464d" d="M171.8236 105.28927C179.4081 97.16302 190.64752 91.03942 203.7631 87.88761L203.7631 106.585106C190.64752 109.736916 179.4081 115.86051 171.8236 123.98677Z" fill-rule="nonzero"/><path fill="#5a646e" d="M119.6472 81.42729C134.8162 65.17478 157.29503 52.92759 183.52621 46.623966L203.7631 87.88761C190.64752 91.03942 179.4081 97.16302 171.8236 105.28927Z" fill-rule="nonzero"/><path fill="#466c93" d="M163.58212 118.44133C165.2725 113.76872 168.05739 109.3245 171.8236 105.28927L171.8236 123.98677C168.05739 128.022 165.2725 132.46622 163.58212 137.13882Z" fill-rule="nonzero"/><path fill="#649ad2" d="M103.16425 107.731415C106.54501 98.38619 112.11478 89.49775 119.6472 81.42729L171.8236 105.28927C168.05739 109.3245 165.2725 113.76872 163.58212 118.44133Z" fill-rule="nonzero"/><path fill="#003563" d="M203.48329 233.91371C143.38976 226.89423 99.35 190.49586 99.35 147.84875L99.35 129.15125C99.35 171.79837 143.38976 208.19672 203.48329 215.2162Z" fill-rule="nonzero"/><path fill="#003563" d="M161.675 129.15125C161.675 125.53978 162.31561 121.94229 163.58212 118.44133L163.58212 137.13882C162.31561 140.63979 161.675 144.23729 161.675 147.84875Z" fill-rule="nonzero"/><path fill="#004b8d" d="M203.48329 215.2162C169.11009 211.2011 138.7075 197.297 119.6472 176.87521C100.58689 156.45343 94.60946 131.3789 103.16425 107.731415L163.58212 118.44133C159.30473 130.26508 162.29344 142.80234 171.8236 153.01323C181.35376 163.22412 196.55505 170.17618 213.74164 172.18373Z" fill-rule="nonzero"/><path fill="#003b80" d="M244.51671 233.91371C230.93282 235.50043 217.06718 235.50043 203.48329 233.91371L203.48329 215.2162C217.06718 216.80293 230.93282 216.80293 244.51671 215.2162Z" fill-rule="nonzero"/><path fill="#0054b7" d="M244.51671 215.2162C230.93282 216.80293 217.06718 216.80293 203.48329 215.2162L213.74164 172.18373C220.53358 172.9771 227.46642 172.9771 234.25836 172.18373Z" fill-rule="nonzero"/><path fill="#1a1a1a" d="M22.475 36.121677L20.584375 36.121677L19.834375 34.168552L16.396875 34.168552L15.69375 36.121677L13.85 36.121677L17.19375 27.527927L19.0375 27.527927L22.475 36.121677ZM19.271875 32.715427L18.1 29.527927L16.928125 32.715427L19.271875 32.715427ZM23.725 27.527927L27.1625 27.527927Q28.178125 27.527927 28.678125 27.621677Q29.178125 27.699802 29.56875 27.981052Q29.975 28.246677 30.240625 28.699802Q30.50625 29.137302 30.50625 29.699802Q30.50625 30.293552 30.178125 30.809177Q29.85 31.309177 29.303125 31.559177Q30.084375 31.777927 30.50625 32.340427Q30.928125 32.887302 30.928125 33.637302Q30.928125 34.215427 30.646875 34.777927Q30.38125 35.324802 29.9125 35.652927Q29.44375 35.981052 28.740625 36.059177Q28.31875 36.106052 26.646875 36.121677L23.725 36.121677L23.725 27.527927ZM25.459375 28.965427L25.459375 30.949802L26.6 30.949802Q27.615625 30.949802 27.865625 30.918552Q28.303125 30.871677 28.553125 30.621677Q28.81875 30.356052 28.81875 29.934177Q28.81875 29.543552 28.6 29.293552Q28.38125 29.043552 27.94375 28.996677Q27.678125 28.965427 26.459375 28.965427L25.459375 28.965427ZM25.459375 32.371677L25.459375 34.668552L27.06875 34.668552Q28.00625 34.668552 28.25625 34.621677Q28.646875 34.543552 28.88125 34.277927Q29.13125 34.012302 29.13125 33.543552Q29.13125 33.168552 28.94375 32.902927Q28.75625 32.621677 28.396875 32.496677Q28.053125 32.371677 26.865625 32.371677L25.459375 32.371677ZM32.725 36.121677L32.725 27.527927L39.1 27.527927L39.1 28.981052L34.459373 28.981052L34.459373 30.887302L38.771873 30.887302L38.771873 32.340427L34.459373 32.340427L34.459373 34.668552L39.25625 34.668552L39.25625 36.121677L32.725 36.121677ZM42.9125 36.121677L39.85 27.527927L41.725 27.527927L43.896873 33.887302L46.00625 27.527927L47.85 27.527927L44.771873 36.121677L42.9125 36.121677ZM48.303123 33.840427L49.896873 33.652927Q49.975 34.262302 50.303123 34.590427Q50.646873 34.902927 51.115623 34.902927Q51.63125 34.902927 51.975 34.512302Q52.31875 34.121677 52.31875 33.465427Q52.31875 32.856052 51.975 32.496677Q51.646873 32.121677 51.178123 32.121677Q50.85 32.121677 50.4125 32.246677L50.6 30.902927Q51.271873 30.918552 51.615623 30.621677Q51.975 30.309177 51.975 29.793552Q51.975 29.371677 51.709373 29.121677Q51.459373 28.856052 51.021873 28.856052Q50.6 28.856052 50.303123 29.152927Q50.00625 29.434177 49.94375 29.996677L48.428123 29.746677Q48.584373 28.965427 48.896873 28.496677Q49.225 28.027927 49.7875 27.762302Q50.365623 27.496677 51.06875 27.496677Q52.2875 27.496677 53.021873 28.262302Q53.615623 28.902927 53.615623 29.699802Q53.615623 30.824802 52.38125 31.496677Q53.13125 31.668552 53.56875 32.215427Q54.00625 32.762302 54.00625 33.543552Q54.00625 34.668552 53.178123 35.465427Q52.35 36.262302 51.13125 36.262302Q49.959373 36.262302 49.19375 35.590427Q48.428123 34.918552 48.303123 33.840427Z" fill-rule="nonzero"/><path fill="#9e9e9e" d="M14.38125 50.918552L16.021875 50.746677Q16.1 51.293552 16.44375 51.621677Q16.7875 51.949802 17.240625 51.949802Q17.75625 51.949802 18.115625 51.527927Q18.475 51.106052 18.475 50.262302Q18.475 49.481052 18.115625 49.090427Q17.75625 48.684177 17.19375 48.684177Q16.475 48.684177 15.9125 49.309177L14.584375 49.121677L15.428125 44.652927L19.7875 44.652927L19.7875 46.184177L16.678125 46.184177L16.4125 47.652927Q16.975 47.371677 17.5375 47.371677Q18.63125 47.371677 19.396875 48.168552Q20.1625 48.965427 20.1625 50.231052Q20.1625 51.293552 19.553125 52.137302Q18.709375 53.262302 17.225 53.262302Q16.0375 53.262302 15.2875 52.637302Q14.5375 51.996677 14.38125 50.918552ZM21.678125 51.481052L23.31875 51.481052L23.31875 52.652927Q23.31875 53.371677 23.19375 53.777927Q23.06875 54.199802 22.725 54.527927Q22.38125 54.856052 21.865625 55.043552L21.5375 54.356052Q22.0375 54.199802 22.240625 53.902927Q22.459375 53.621677 22.475 53.121677L21.678125 53.121677L21.678125 51.481052ZM24.303125 50.840427L25.896875 50.652927Q25.975 51.262302 26.303125 51.590427Q26.646875 51.902927 27.115625 51.902927Q27.63125 51.902927 27.975 51.512302Q28.31875 51.121677 28.31875 50.465427Q28.31875 49.856052 27.975 49.496677Q27.646875 49.121677 27.178125 49.121677Q26.85 49.121677 26.4125 49.246677L26.6 47.902927Q27.271875 47.918552 27.615625 47.621677Q27.975 47.309177 27.975 46.793552Q27.975 46.371677 27.709375 46.121677Q27.459375 45.856052 27.021875 45.856052Q26.6 45.856052 26.303125 46.152927Q26.00625 46.434177 25.94375 46.996677L24.428125 46.746677Q24.584375 45.965427 24.896875 45.496677Q25.225 45.027927 25.7875 44.762302Q26.365625 44.496677 27.06875 44.496677Q28.2875 44.496677 29.021875 45.262302Q29.615625 45.902927 29.615625 46.699802Q29.615625 47.824802 28.38125 48.496677Q29.13125 48.668552 29.56875 49.215427Q30.00625 49.762302 30.00625 50.543552Q30.00625 51.668552 29.178125 52.465427Q28.35 53.262302 27.13125 53.262302Q25.959375 53.262302 25.19375 52.590427Q24.428125 51.918552 24.303125 50.840427ZM31.365625 46.652927Q31.365625 45.496677 31.865625 44.949802Q32.38125 44.387302 33.25625 44.387302Q34.146873 44.387302 34.646873 44.949802Q35.1625 45.496677 35.1625 46.652927Q35.1625 47.809177 34.646873 48.371677Q34.146873 48.918552 33.2875 48.918552Q32.38125 48.918552 31.865625 48.371677Q31.365625 47.809177 31.365625 46.652927ZM32.6625 46.637302Q32.6625 47.481052 32.85 47.762302Q32.990623 47.981052 33.25625 47.981052Q33.521873 47.981052 33.6625 47.762302Q33.85 47.481052 33.85 46.637302Q33.85 45.809177 33.6625 45.527927Q33.521873 45.309177 33.25625 45.309177Q32.990623 45.309177 32.85 45.512302Q32.6625 45.809177 32.6625 46.637302ZM34.50625 53.449802L33.2875 53.449802L37.865623 44.387302L39.053123 44.387302L34.50625 53.449802ZM37.1625 51.199802Q37.1625 50.043552 37.6625 49.481052Q38.178123 48.918552 39.053123 48.918552Q39.94375 48.918552 40.44375 49.481052Q40.959373 50.043552 40.959373 51.199802Q40.959373 52.356052 40.44375 52.918552Q39.94375 53.465427 39.084373 53.465427Q38.178123 53.465427 37.6625 52.918552Q37.1625 52.356052 37.1625 51.199802ZM38.44375 51.184177Q38.44375 52.027927 38.646873 52.309177Q38.7875 52.527927 39.053123 52.527927Q39.31875 52.527927 39.459373 52.309177Q39.646873 52.027927 39.646873 51.184177Q39.646873 50.356052 39.459373 50.059177Q39.31875 49.856052 39.053123 49.856052Q38.7875 49.856052 38.646873 50.059177Q38.44375 50.356052 38.44375 51.184177Z" fill-rule="nonzero"/><path stroke="#757575" stroke-width="1.0" stroke-linecap="butt" d="M13.85 40.621677L93.35 40.621677L204.50912 47.38954" fill-rule="nonzero"/><path fill="#9e9e9e" d="M206.50912 47.38954C206.50912 46.284973 205.6137 45.38954 204.50912 45.38954C203.40456 45.38954 202.50912 46.284973 202.50912 47.38954C202.50912 48.49411 203.40456 49.38954 204.50912 49.38954C205.6137 49.38954 206.50912 48.49411 206.50912 47.38954" fill-rule="nonzero"/><path fill="#1a1a1a" d="M20.225 63.965424L21.896875 64.49667Q21.521875 65.90292 20.615625 66.59042Q19.709375 67.2623 18.334375 67.2623Q16.615625 67.2623 15.50625 66.10605Q14.4125 64.93417 14.4125 62.902924Q14.4125 60.7623 15.521875 59.5748Q16.63125 58.3873 18.44375 58.3873Q20.021875 58.3873 21.00625 59.309174Q21.584375 59.871674 21.88125 60.902924L20.1625 61.309174Q20.00625 60.6373 19.521875 60.2623Q19.0375 59.871674 18.35 59.871674Q17.396875 59.871674 16.803125 60.559174Q16.209375 61.23105 16.209375 62.777924Q16.209375 64.40292 16.7875 65.09042Q17.38125 65.77792 18.31875 65.77792Q19.00625 65.77792 19.50625 65.34042Q20.00625 64.90292 20.225 63.965424ZM23.678125 67.12167L23.678125 58.527924L25.4125 58.527924L25.4125 67.12167L23.678125 67.12167ZM26.725 67.12167L26.725 58.527924L33.1 58.527924L33.1 59.98105L28.459375 59.98105L28.459375 61.8873L32.771873 61.8873L32.771873 63.340424L28.459375 63.340424L28.459375 65.66855L33.25625 65.66855L33.25625 67.12167L26.725 67.12167ZM34.771873 67.12167L34.771873 58.60605L36.50625 58.60605L36.50625 65.66855L40.81875 65.66855L40.81875 67.12167L34.771873 67.12167ZM41.303123 64.84042L42.896873 64.65292Q42.975 65.2623 43.303123 65.59042Q43.646873 65.90292 44.115623 65.90292Q44.63125 65.90292 44.975 65.5123Q45.31875 65.12167 45.31875 64.46542Q45.31875 63.85605 44.975 63.496674Q44.646873 63.121674 44.178123 63.121674Q43.85 63.121674 43.4125 63.246674L43.6 61.902924Q44.271873 61.91855 44.615623 61.621674Q44.975 61.309174 44.975 60.79355Q44.975 60.371674 44.709373 60.121674Q44.459373 59.85605 44.021873 59.85605Q43.6 59.85605 43.303123 60.152924Q43.00625 60.434174 42.94375 60.996674L41.428123 60.746674Q41.584373 59.965424 41.896873 59.496674Q42.225 59.027924 42.7875 58.7623Q43.365623 58.496674 44.06875 58.496674Q45.2875 58.496674 46.021873 59.2623Q46.615623 59.902924 46.615623 60.6998Q46.615623 61.8248 45.38125 62.496674Q46.13125 62.66855 46.56875 63.215424Q47.00625 63.7623 47.00625 64.54355Q47.00625 65.66855 46.178123 66.46542Q45.35 67.2623 44.13125 67.2623Q42.959373 67.2623 42.19375 66.59042Q41.428123 65.91855 41.303123 64.84042Z" fill-rule="nonzero"/><path fill="#9e9e9e" d="M18.56875 84.12167L16.928125 84.12167L16.928125 77.91855Q16.021875 78.7623 14.803125 79.16855L14.803125 77.66855Q15.44375 77.46542 16.19375 76.87167Q16.959375 76.27792 17.240625 75.49667L18.56875 75.49667L18.56875 84.12167ZM24.146875 75.49667Q25.396875 75.49667 26.1 76.3873Q26.928125 77.43417 26.928125 79.8873Q26.928125 82.3248 26.084375 83.3873Q25.396875 84.2623 24.146875 84.2623Q22.896875 84.2623 22.115625 83.30917Q21.35 82.34042 21.35 79.87167Q21.35 77.43417 22.19375 76.37167Q22.896875 75.49667 24.146875 75.49667ZM24.146875 76.85605Q23.85 76.85605 23.615625 77.05917Q23.38125 77.24667 23.240625 77.73105Q23.084375 78.37167 23.084375 79.8873Q23.084375 81.40292 23.225 81.96542Q23.38125 82.52792 23.615625 82.71542Q23.85 82.90292 24.146875 82.90292Q24.44375 82.90292 24.678125 82.71542Q24.9125 82.52792 25.0375 82.02792Q25.209375 81.40292 25.209375 79.8873Q25.209375 78.37167 25.053125 77.80917Q24.9125 77.24667 24.678125 77.05917Q24.44375 76.85605 24.146875 76.85605ZM28.678125 82.48105L30.31875 82.48105L30.31875 83.65292Q30.31875 84.37167 30.19375 84.77792Q30.06875 85.1998 29.725 85.52792Q29.38125 85.85605 28.865625 86.04355L28.5375 85.35605Q29.0375 85.1998 29.240625 84.90292Q29.459375 84.62167 29.475 84.12167L28.678125 84.12167L28.678125 82.48105ZM31.38125 81.91855L33.021873 81.74667Q33.1 82.29355 33.44375 82.62167Q33.7875 82.9498 34.240623 82.9498Q34.75625 82.9498 35.115623 82.52792Q35.475 82.10605 35.475 81.2623Q35.475 80.48105 35.115623 80.09042Q34.75625 79.68417 34.19375 79.68417Q33.475 79.68417 32.9125 80.30917L31.584375 80.12167L32.428123 75.65292L36.7875 75.65292L36.7875 77.18417L33.678123 77.18417L33.4125 78.65292Q33.975 78.37167 34.5375 78.37167Q35.63125 78.37167 36.396873 79.16855Q37.1625 79.96542 37.1625 81.23105Q37.1625 82.29355 36.553123 83.1373Q35.709373 84.2623 34.225 84.2623Q33.0375 84.2623 32.2875 83.6373Q31.5375 82.99667 31.38125 81.91855ZM38.365623 77.65292Q38.365623 76.49667 38.865623 75.9498Q39.38125 75.3873 40.25625 75.3873Q41.146873 75.3873 41.646873 75.9498Q42.1625 76.49667 42.1625 77.65292Q42.1625 78.80917 41.646873 79.37167Q41.146873 79.91855 40.2875 79.91855Q39.38125 79.91855 38.865623 79.37167Q38.365623 78.80917 38.365623 77.65292ZM39.6625 77.6373Q39.6625 78.48105 39.85 78.7623Q39.990623 78.98105 40.25625 78.98105Q40.521873 78.98105 40.6625 78.7623Q40.85 78.48105 40.85 77.6373Q40.85 76.80917 40.6625 76.52792Q40.521873 76.30917 40.25625 76.30917Q39.990623 76.30917 39.85 76.5123Q39.6625 76.80917 39.6625 77.6373ZM41.50625 84.4498L40.2875 84.4498L44.865623 75.3873L46.053123 75.3873L41.50625 84.4498ZM44.1625 82.1998Q44.1625 81.04355 44.6625 80.48105Q45.178123 79.91855 46.053123 79.91855Q46.94375 79.91855 47.44375 80.48105Q47.959373 81.04355 47.959373 82.1998Q47.959373 83.35605 47.44375 83.91855Q46.94375 84.46542 46.084373 84.46542Q45.178123 84.46542 44.6625 83.91855Q44.1625 83.35605 44.1625 82.1998ZM45.44375 82.18417Q45.44375 83.02792 45.646873 83.30917Q45.7875 83.52792 46.053123 83.52792Q46.31875 83.52792 46.459373 83.30917Q46.646873 83.02792 46.646873 82.18417Q46.646873 81.35605 46.459373 81.05917Q46.31875 80.85605 46.053123 80.85605Q45.7875 80.85605 45.646873 81.05917Q45.44375 81.35605 45.44375 82.18417Z" fill-rule="nonzero"/><path stroke="#757575" stroke-width="1.0" stroke-linecap="butt" d="M13.85 71.62167L93.35 71.62167L151.26646 63.737617" fill-rule="nonzero"/><path fill="#9e9e9e" d="M153.26646 63.737617C153.26646 62.63305 152.37103 61.737617 151.26646 61.737617C150.1619 61.737617 149.26646 62.63305 149.26646 63.737617C149.26646 64.842186 150.1619 65.73762 151.26646 65.73762C152.37103 65.73762 153.26646 64.842186 153.26646 63.737617" fill-rule="nonzero"/><path fill="#1a1a1a" d="M18.725 94.96542L18.725 93.5123L22.459375 93.5123L22.459375 96.93417Q21.9125 97.46542 20.88125 97.87167Q19.85 98.2623 18.7875 98.2623Q17.44375 98.2623 16.428125 97.6998Q15.428125 97.1373 14.928125 96.09042Q14.428125 95.02792 14.428125 93.79355Q14.428125 92.4498 14.990625 91.41855Q15.553125 90.37167 16.63125 89.80917Q17.459375 89.3873 18.69375 89.3873Q20.2875 89.3873 21.178125 90.05917Q22.084375 90.73105 22.35 91.90292L20.63125 92.23105Q20.44375 91.60605 19.94375 91.24667Q19.44375 90.87167 18.69375 90.87167Q17.553125 90.87167 16.88125 91.59042Q16.209375 92.30917 16.209375 93.73105Q16.209375 95.2623 16.88125 96.02792Q17.56875 96.77792 18.678125 96.77792Q19.225 96.77792 19.771875 96.5748Q20.31875 96.35605 20.709375 96.05917L20.709375 94.96542L18.725 94.96542ZM23.725 98.12167L23.725 89.52792L27.38125 89.52792Q28.75625 89.52792 29.38125 89.7623Q30.00625 89.99667 30.38125 90.59042Q30.75625 91.18417 30.75625 91.93417Q30.75625 92.90292 30.178125 93.54355Q29.615625 94.16855 28.490625 94.3248Q29.053125 94.65292 29.4125 95.05917Q29.7875 95.4498 30.396875 96.4498L31.459375 98.12167L29.38125 98.12167L28.13125 96.24667Q27.459375 95.24667 27.209375 94.99667Q26.959375 94.73105 26.678125 94.6373Q26.4125 94.52792 25.81875 94.52792L25.459375 94.52792L25.459375 98.12167L23.725 98.12167ZM25.459375 93.16855L26.740625 93.16855Q27.990625 93.16855 28.303125 93.05917Q28.615625 92.9498 28.7875 92.6998Q28.975 92.43417 28.975 92.04355Q28.975 91.62167 28.740625 91.35605Q28.50625 91.09042 28.084375 91.0123Q27.865625 90.98105 26.81875 90.98105L25.459375 90.98105L25.459375 93.16855ZM32.740623 98.12167L32.740623 89.52792L34.428123 89.52792L37.94375 95.2623L37.94375 89.52792L39.553123 89.52792L39.553123 98.12167L37.81875 98.12167L34.35 92.5123L34.35 98.12167L32.740623 98.12167ZM41.725 89.52792L44.88125 89.52792Q45.959373 89.52792 46.521873 89.6998Q47.271873 89.91855 47.803123 90.49667Q48.35 91.05917 48.63125 91.8873Q48.9125 92.6998 48.9125 93.90292Q48.9125 94.96542 48.6625 95.73105Q48.334373 96.66855 47.740623 97.24667Q47.2875 97.6998 46.521873 97.93417Q45.94375 98.12167 44.975 98.12167L41.725 98.12167L41.725 89.52792ZM43.459373 90.98105L43.459373 96.66855L44.740623 96.66855Q45.475 96.66855 45.803123 96.59042Q46.225 96.48105 46.490623 96.23105Q46.771873 95.98105 46.94375 95.40292Q47.13125 94.8248 47.13125 93.8248Q47.13125 92.84042 46.94375 92.30917Q46.771873 91.7623 46.459373 91.46542Q46.146873 91.16855 45.6625 91.05917Q45.2875 90.98105 44.225 90.98105L43.459373 90.98105ZM50.303123 95.84042L51.896873 95.65292Q51.975 96.2623 52.303123 96.59042Q52.646873 96.90292 53.115623 96.90292Q53.63125 96.90292 53.975 96.5123Q54.31875 96.12167 54.31875 95.46542Q54.31875 94.85605 53.975 94.49667Q53.646873 94.12167 53.178123 94.12167Q52.85 94.12167 52.4125 94.24667L52.6 92.90292Q53.271873 92.91855 53.615623 92.62167Q53.975 92.30917 53.975 91.79355Q53.975 91.37167 53.709373 91.12167Q53.459373 90.85605 53.021873 90.85605Q52.6 90.85605 52.303123 91.15292Q52.00625 91.43417 51.94375 91.99667L50.428123 91.74667Q50.584373 90.96542 50.896873 90.49667Q51.225 90.02792 51.7875 89.7623Q52.365623 89.49667 53.06875 89.49667Q54.2875 89.49667 55.021873 90.2623Q55.615623 90.90292 55.615623 91.6998Q55.615623 92.8248 54.38125 93.49667Q55.13125 93.66855 55.56875 94.21542Q56.00625 94.7623 56.00625 95.54355Q56.00625 96.66855 55.178123 97.46542Q54.35 98.2623 53.13125 98.2623Q51.959373 98.2623 51.19375 97.59042Q50.428123 96.91855 50.303123 95.84042Z" fill-rule="nonzero"/><path fill="#9e9e9e" d="M14.38125 112.91855L16.021875 112.74667Q16.1 113.29355 16.44375 113.62167Q16.7875 113.9498 17.240625 113.9498Q17.75625 113.9498 18.115625 113.52792Q18.475 113.10605 18.475 112.2623Q18.475 111.48105 18.115625 111.09042Q17.75625 110.68417 17.19375 110.68417Q16.475 110.68417 15.9125 111.30917L14.584375 111.12167L15.428125 106.65292L19.7875 106.65292L19.7875 108.18417L16.678125 108.18417L16.4125 109.65292Q16.975 109.37167 17.5375 109.37167Q18.63125 109.37167 19.396875 110.16855Q20.1625 110.96542 20.1625 112.23105Q20.1625 113.29355 19.553125 114.1373Q18.709375 115.2623 17.225 115.2623Q16.0375 115.2623 15.2875 114.6373Q14.5375 113.99667 14.38125 112.91855ZM21.678125 113.48105L23.31875 113.48105L23.31875 114.65292Q23.31875 115.37167 23.19375 115.77792Q23.06875 116.1998 22.725 116.52792Q22.38125 116.85605 21.865625 117.04355L21.5375 116.35605Q22.0375 116.1998 22.240625 115.90292Q22.459375 115.62167 22.475 115.12167L21.678125 115.12167L21.678125 113.48105ZM24.303125 112.84042L25.896875 112.65292Q25.975 113.2623 26.303125 113.59042Q26.646875 113.90292 27.115625 113.90292Q27.63125 113.90292 27.975 113.5123Q28.31875 113.12167 28.31875 112.46542Q28.31875 111.85605 27.975 111.49667Q27.646875 111.12167 27.178125 111.12167Q26.85 111.12167 26.4125 111.24667L26.6 109.90292Q27.271875 109.91855 27.615625 109.62167Q27.975 109.30917 27.975 108.79355Q27.975 108.37167 27.709375 108.12167Q27.459375 107.85605 27.021875 107.85605Q26.6 107.85605 26.303125 108.15292Q26.00625 108.43417 25.94375 108.99667L24.428125 108.74667Q24.584375 107.96542 24.896875 107.49667Q25.225 107.02792 25.7875 106.7623Q26.365625 106.49667 27.06875 106.49667Q28.2875 106.49667 29.021875 107.2623Q29.615625 107.90292 29.615625 108.6998Q29.615625 109.8248 28.38125 110.49667Q29.13125 110.66855 29.56875 111.21542Q30.00625 111.7623 30.00625 112.54355Q30.00625 113.66855 29.178125 114.46542Q28.35 115.2623 27.13125 115.2623Q25.959375 115.2623 25.19375 114.59042Q24.428125 113.91855 24.303125 112.84042ZM31.365625 108.65292Q31.365625 107.49667 31.865625 106.9498Q32.38125 106.3873 33.25625 106.3873Q34.146873 106.3873 34.646873 106.9498Q35.1625 107.49667 35.1625 108.65292Q35.1625 109.80917 34.646873 110.37167Q34.146873 110.91855 33.2875 110.91855Q32.38125 110.91855 31.865625 110.37167Q31.365625 109.80917 31.365625 108.65292ZM32.6625 108.6373Q32.6625 109.48105 32.85 109.7623Q32.990623 109.98105 33.25625 109.98105Q33.521873 109.98105 33.6625 109.7623Q33.85 109.48105 33.85 108.6373Q33.85 107.80917 33.6625 107.52792Q33.521873 107.30917 33.25625 107.30917Q32.990623 107.30917 32.85 107.5123Q32.6625 107.80917 32.6625 108.6373ZM34.50625 115.4498L33.2875 115.4498L37.865623 106.3873L39.053123 106.3873L34.50625 115.4498ZM37.1625 113.1998Q37.1625 112.04355 37.6625 111.48105Q38.178123 110.91855 39.053123 110.91855Q39.94375 110.91855 40.44375 111.48105Q40.959373 112.04355 40.959373 113.1998Q40.959373 114.35605 40.44375 114.91855Q39.94375 115.46542 39.084373 115.46542Q38.178123 115.46542 37.6625 114.91855Q37.1625 114.35605 37.1625 113.1998ZM38.44375 113.18417Q38.44375 114.02792 38.646873 114.30917Q38.7875 114.52792 39.053123 114.52792Q39.31875 114.52792 39.459373 114.30917Q39.646873 114.02792 39.646873 113.18417Q39.646873 112.35605 39.459373 112.05917Q39.31875 111.85605 39.053123 111.85605Q38.7875 111.85605 38.646873 112.05917Q38.44375 112.35605 38.44375 113.18417Z" fill-rule="nonzero"/><path stroke="#757575" stroke-width="1.0" stroke-linecap="butt" d="M13.85 102.62167L93.35 102.62167L115.55641 95.85381" fill-rule="nonzero"/><path fill="#9e9e9e" d="M117.55641 95.85381C117.55641 94.749245 116.66098 93.85381 115.55641 93.85381C114.45184 93.85381 113.55641 94.749245 113.55641 95.85381C113.55641 96.95838 114.45184 97.85381 115.55641 97.85381C116.66098 97.85381 117.55641 96.95838 117.55641 95.85381" fill-rule="nonzero"/><path fill="#1a1a1a" d="M14.725 161.39526L18.1625 161.39526Q19.178125 161.39526 19.678125 161.48901Q20.178125 161.56714 20.56875 161.84839Q20.975 162.11401 21.240625 162.56714Q21.50625 163.00464 21.50625 163.56714Q21.50625 164.16089 21.178125 164.67651Q20.85 165.17651 20.303125 165.42651Q21.084375 165.64526 21.50625 166.20776Q21.928125 166.75464 21.928125 167.50464Q21.928125 168.08276 21.646875 168.64526Q21.38125 169.19214 20.9125 169.52026Q20.44375 169.84839 19.740625 169.92651Q19.31875 169.97339 17.646875 169.98901L14.725 169.98901L14.725 161.39526ZM16.459375 162.83276L16.459375 164.81714L17.6 164.81714Q18.615625 164.81714 18.865625 164.78589Q19.303125 164.73901 19.553125 164.48901Q19.81875 164.22339 19.81875 163.80151Q19.81875 163.41089 19.6 163.16089Q19.38125 162.91089 18.94375 162.86401Q18.678125 162.83276 17.459375 162.83276L16.459375 162.83276ZM16.459375 166.23901L16.459375 168.53589L18.06875 168.53589Q19.00625 168.53589 19.25625 168.48901Q19.646875 168.41089 19.88125 168.14526Q20.13125 167.87964 20.13125 167.41089Q20.13125 167.03589 19.94375 166.77026Q19.75625 166.48901 19.396875 166.36401Q19.053125 166.23901 17.865625 166.23901L16.459375 166.23901ZM23.725 169.98901L23.725 161.39526L30.1 161.39526L30.1 162.84839L25.459375 162.84839L25.459375 164.75464L29.771875 164.75464L29.771875 166.20776L25.459375 166.20776L25.459375 168.53589L30.25625 168.53589L30.25625 169.98901L23.725 169.98901ZM31.725 169.98901L31.725 161.39526L38.1 161.39526L38.1 162.84839L33.459373 162.84839L33.459373 164.75464L37.771873 164.75464L37.771873 166.20776L33.459373 166.20776L33.459373 168.53589L38.25625 168.53589L38.25625 169.98901L31.725 169.98901ZM39.2875 167.19214L40.975 167.03589Q41.13125 167.87964 41.584373 168.28589Q42.053123 168.67651 42.85 168.67651Q43.678123 168.67651 44.1 168.33276Q44.5375 167.97339 44.5375 167.48901Q44.5375 167.19214 44.35 166.97339Q44.178123 166.75464 43.725 166.59839Q43.428123 166.48901 42.35 166.22339Q40.94375 165.87964 40.38125 165.37964Q39.6 164.66089 39.6 163.64526Q39.6 162.98901 39.959373 162.42651Q40.334373 161.84839 41.0375 161.55151Q41.740623 161.25464 42.725 161.25464Q44.35 161.25464 45.1625 161.97339Q45.975 162.67651 46.021873 163.84839L44.2875 163.92651Q44.178123 163.27026 43.803123 162.98901Q43.44375 162.69214 42.709373 162.69214Q41.959373 162.69214 41.521873 163.00464Q41.25625 163.19214 41.25625 163.53589Q41.25625 163.83276 41.50625 164.05151Q41.834373 164.33276 43.1 164.62964Q44.365623 164.92651 44.975 165.25464Q45.584373 165.56714 45.928123 166.12964Q46.271873 166.67651 46.271873 167.48901Q46.271873 168.22339 45.85 168.87964Q45.44375 169.52026 44.69375 169.83276Q43.94375 170.14526 42.834373 170.14526Q41.19375 170.14526 40.31875 169.39526Q39.459373 168.62964 39.2875 167.19214ZM47.303123 167.70776L48.896873 167.52026Q48.975 168.12964 49.303123 168.45776Q49.646873 168.77026 50.115623 168.77026Q50.63125 168.77026 50.975 168.37964Q51.31875 167.98901 51.31875 167.33276Q51.31875 166.72339 50.975 166.36401Q50.646873 165.98901 50.178123 165.98901Q49.85 165.98901 49.4125 166.11401L49.6 164.77026Q50.271873 164.78589 50.615623 164.48901Q50.975 164.17651 50.975 163.66089Q50.975 163.23901 50.709373 162.98901Q50.459373 162.72339 50.021873 162.72339Q49.6 162.72339 49.303123 163.02026Q49.00625 163.30151 48.94375 163.86401L47.428123 163.61401Q47.584373 162.83276 47.896873 162.36401Q48.225 161.89526 48.7875 161.62964Q49.365623 161.36401 50.06875 161.36401Q51.2875 161.36401 52.021873 162.12964Q52.615623 162.77026 52.615623 163.56714Q52.615623 164.69214 51.38125 165.36401Q52.13125 165.53589 52.56875 166.08276Q53.00625 166.62964 53.00625 167.41089Q53.00625 168.53589 52.178123 169.33276Q51.35 170.12964 50.13125 170.12964Q48.959373 170.12964 48.19375 169.45776Q47.428123 168.78589 47.303123 167.70776Z" fill-rule="nonzero"/><path fill="#9e9e9e" d="M19.928125 185.45776L19.928125 186.98901L14.146875 186.98901Q14.240625 186.11401 14.709375 185.34839Q15.178125 184.56714 16.56875 183.28589Q17.678125 182.25464 17.928125 181.87964Q18.271875 181.36401 18.271875 180.86401Q18.271875 180.31714 17.975 180.02026Q17.678125 179.72339 17.1625 179.72339Q16.646875 179.72339 16.334375 180.03589Q16.0375 180.34839 15.990625 181.06714L14.35 180.91089Q14.490625 179.55151 15.25625 178.95776Q16.0375 178.36401 17.19375 178.36401Q18.475 178.36401 19.19375 179.05151Q19.928125 179.73901 19.928125 180.75464Q19.928125 181.33276 19.709375 181.86401Q19.50625 182.37964 19.053125 182.95776Q18.75625 183.33276 17.975 184.05151Q17.19375 184.77026 16.990625 185.00464Q16.7875 185.23901 16.646875 185.45776L19.928125 185.45776ZM26.94375 180.50464L25.35 180.67651Q25.2875 180.19214 25.0375 179.95776Q24.7875 179.72339 24.396875 179.72339Q23.88125 179.72339 23.521875 180.19214Q23.1625 180.66089 23.06875 182.12964Q23.678125 181.41089 24.6 181.41089Q25.63125 181.41089 26.365625 182.19214Q27.1 182.97339 27.1 184.22339Q27.1 185.53589 26.31875 186.33276Q25.553125 187.12964 24.334375 187.12964Q23.0375 187.12964 22.19375 186.12964Q21.365625 185.11401 21.365625 182.81714Q21.365625 180.44214 22.225 179.41089Q23.1 178.36401 24.50625 178.36401Q25.475 178.36401 26.115625 178.91089Q26.75625 179.45776 26.94375 180.50464ZM23.209375 184.09839Q23.209375 184.89526 23.56875 185.33276Q23.94375 185.77026 24.4125 185.77026Q24.88125 185.77026 25.178125 185.41089Q25.490625 185.05151 25.490625 184.23901Q25.490625 183.39526 25.1625 183.02026Q24.834375 182.62964 24.334375 182.62964Q23.865625 182.62964 23.5375 183.00464Q23.209375 183.36401 23.209375 184.09839ZM28.678125 185.34839L30.31875 185.34839L30.31875 186.52026Q30.31875 187.23901 30.19375 187.64526Q30.06875 188.06714 29.725 188.39526Q29.38125 188.72339 28.865625 188.91089L28.5375 188.22339Q29.0375 188.06714 29.240625 187.77026Q29.459375 187.48901 29.475 186.98901L28.678125 186.98901L28.678125 185.34839ZM31.303125 184.70776L32.896873 184.52026Q32.975 185.12964 33.303123 185.45776Q33.646873 185.77026 34.115623 185.77026Q34.63125 185.77026 34.975 185.37964Q35.31875 184.98901 35.31875 184.33276Q35.31875 183.72339 34.975 183.36401Q34.646873 182.98901 34.178123 182.98901Q33.85 182.98901 33.4125 183.11401L33.6 181.77026Q34.271873 181.78589 34.615623 181.48901Q34.975 181.17651 34.975 180.66089Q34.975 180.23901 34.709373 179.98901Q34.459373 179.72339 34.021873 179.72339Q33.6 179.72339 33.303123 180.02026Q33.00625 180.30151 32.94375 180.86401L31.428125 180.61401Q31.584375 179.83276 31.896875 179.36401Q32.225 178.89526 32.7875 178.62964Q33.365623 178.36401 34.06875 178.36401Q35.2875 178.36401 36.021873 179.12964Q36.615623 179.77026 36.615623 180.56714Q36.615623 181.69214 35.38125 182.36401Q36.13125 182.53589 36.56875 183.08276Q37.00625 183.62964 37.00625 184.41089Q37.00625 185.53589 36.178123 186.33276Q35.35 187.12964 34.13125 187.12964Q32.959373 187.12964 32.19375 186.45776Q31.428125 185.78589 31.303125 184.70776ZM38.365623 180.52026Q38.365623 179.36401 38.865623 178.81714Q39.38125 178.25464 40.25625 178.25464Q41.146873 178.25464 41.646873 178.81714Q42.1625 179.36401 42.1625 180.52026Q42.1625 181.67651 41.646873 182.23901Q41.146873 182.78589 40.2875 182.78589Q39.38125 182.78589 38.865623 182.23901Q38.365623 181.67651 38.365623 180.52026ZM39.6625 180.50464Q39.6625 181.34839 39.85 181.62964Q39.990623 181.84839 40.25625 181.84839Q40.521873 181.84839 40.6625 181.62964Q40.85 181.34839 40.85 180.50464Q40.85 179.67651 40.6625 179.39526Q40.521873 179.17651 40.25625 179.17651Q39.990623 179.17651 39.85 179.37964Q39.6625 179.67651 39.6625 180.50464ZM41.50625 187.31714L40.2875 187.31714L44.865623 178.25464L46.053123 178.25464L41.50625 187.31714ZM44.1625 185.06714Q44.1625 183.91089 44.6625 183.34839Q45.178123 182.78589 46.053123 182.78589Q46.94375 182.78589 47.44375 183.34839Q47.959373 183.91089 47.959373 185.06714Q47.959373 186.22339 47.44375 186.78589Q46.94375 187.33276 46.084373 187.33276Q45.178123 187.33276 44.6625 186.78589Q44.1625 186.22339 44.1625 185.06714ZM45.44375 185.05151Q45.44375 185.89526 45.646873 186.17651Q45.7875 186.39526 46.053123 186.39526Q46.31875 186.39526 46.459373 186.17651Q46.646873 185.89526 46.646873 185.05151Q46.646873 184.22339 46.459373 183.92651Q46.31875 183.72339 46.053123 183.72339Q45.7875 183.72339 45.646873 183.92651Q45.44375 184.22339 45.44375 185.05151Z" fill-rule="nonzero"/><path stroke="#757575" stroke-width="1.0" stroke-linecap="butt" d="M13.85 174.48901L93.35 174.48901L124.86484 174.48901" fill-rule="nonzero"/><path fill="#9e9e9e" d="M126.86484 174.48901C126.86484 173.38445 125.969406 172.48901 124.86484 172.48901C123.76027 172.48901 122.86484 173.38445 122.86484 174.48901C122.86484 175.59358 123.76027 176.48901 124.86484 176.48901C125.969406 176.48901 126.86484 175.59358 126.86484 174.48901" fill-rule="nonzero"/><path fill="#1a1a1a" d="M392.025 68.50986L392.025 59.916107L394.80624 59.916107Q396.38437 59.916107 396.86874 60.041107Q397.60312 60.244232 398.10312 60.900482Q398.60312 61.541107 398.60312 62.556732Q398.60312 63.353607 398.30624 63.900482Q398.025 64.43173 397.5875 64.74423Q397.15 65.04111 396.68124 65.15048Q396.07187 65.27548 394.88437 65.27548L393.75937 65.27548L393.75937 68.50986L392.025 68.50986ZM393.75937 61.369232L393.75937 63.806732L394.7125 63.806732Q395.72812 63.806732 396.07187 63.681732Q396.43124 63.541107 396.61874 63.259857Q396.82187 62.962982 396.82187 62.587982Q396.82187 62.119232 396.54062 61.822357Q396.25937 61.509857 395.8375 61.431732Q395.54062 61.369232 394.60312 61.369232L393.75937 61.369232ZM399.66562 64.25986Q399.66562 62.947357 400.07187 62.056732Q400.35312 61.400482 400.85312 60.884857Q401.36874 60.369232 401.97812 60.119232Q402.775 59.775482 403.82187 59.775482Q405.72812 59.775482 406.86874 60.962982Q408.00937 62.134857 408.00937 64.22861Q408.00937 66.30673 406.86874 67.47861Q405.74374 68.65048 403.85312 68.65048Q401.93124 68.65048 400.79062 67.49423Q399.66562 66.32236 399.66562 64.25986ZM401.4625 64.21298Q401.4625 65.66611 402.13437 66.41611Q402.80624 67.16611 403.8375 67.16611Q404.88437 67.16611 405.54062 66.43173Q406.2125 65.68173 406.2125 64.18173Q406.2125 62.712982 405.55624 61.994232Q404.91562 61.259857 403.8375 61.259857Q402.775 61.259857 402.11874 61.994232Q401.4625 62.728607 401.4625 64.21298ZM408.99374 68.50986L408.99374 59.916107L411.60312 59.916107L413.15 65.77548L414.69687 59.916107L417.29062 59.916107L417.29062 68.50986L415.68124 68.50986L415.68124 61.744232L413.97812 68.50986L412.30624 68.50986L410.61874 61.744232L410.61874 68.50986L408.99374 68.50986ZM418.66562 64.25986Q418.66562 62.947357 419.07187 62.056732Q419.35312 61.400482 419.85312 60.884857Q420.36874 60.369232 420.97812 60.119232Q421.775 59.775482 422.82187 59.775482Q424.72812 59.775482 425.86874 60.962982Q427.00937 62.134857 427.00937 64.22861Q427.00937 66.30673 425.86874 67.47861Q424.74374 68.65048 422.85312 68.65048Q420.93124 68.65048 419.79062 67.49423Q418.66562 66.32236 418.66562 64.25986ZM420.4625 64.21298Q420.4625 65.66611 421.13437 66.41611Q421.80624 67.16611 422.8375 67.16611Q423.88437 67.16611 424.54062 66.43173Q425.2125 65.68173 425.2125 64.18173Q425.2125 62.712982 424.55624 61.994232Q423.91562 61.259857 422.8375 61.259857Q421.775 61.259857 421.11874 61.994232Q420.4625 62.728607 420.4625 64.21298ZM427.60312 66.22861L429.19687 66.04111Q429.275 66.65048 429.60312 66.97861Q429.94687 67.29111 430.41562 67.29111Q430.93124 67.29111 431.275 66.90048Q431.61874 66.50986 431.61874 65.85361Q431.61874 65.24423 431.275 64.88486Q430.94687 64.50986 430.47812 64.50986Q430.15 64.50986 429.7125 64.63486L429.9 63.291107Q430.57187 63.306732 430.91562 63.009857Q431.275 62.697357 431.275 62.181732Q431.275 61.759857 431.00937 61.509857Q430.75937 61.244232 430.32187 61.244232Q429.9 61.244232 429.60312 61.541107Q429.30624 61.822357 429.24374 62.384857L427.72812 62.134857Q427.88437 61.353607 428.19687 60.884857Q428.525 60.416107 429.0875 60.150482Q429.66562 59.884857 430.36874 59.884857Q431.5875 59.884857 432.32187 60.650482Q432.91562 61.291107 432.91562 62.087982Q432.91562 63.212982 431.68124 63.884857Q432.43124 64.05673 432.86874 64.60361Q433.30624 65.15048 433.30624 65.93173Q433.30624 67.05673 432.47812 67.85361Q431.65 68.65048 430.43124 68.65048Q429.25937 68.65048 428.49374 67.97861Q427.72812 67.30673 427.60312 66.22861Z" fill-rule="nonzero"/><path fill="#9e9e9e" d="M405.22812 83.97861L405.22812 85.50986L399.44687 85.50986Q399.54062 84.63486 400.00937 83.86923Q400.47812 83.08798 401.86874 81.80673Q402.97812 80.77548 403.22812 80.40048Q403.57187 79.88486 403.57187 79.38486Q403.57187 78.83798 403.275 78.54111Q402.97812 78.24423 402.4625 78.24423Q401.94687 78.24423 401.63437 78.55673Q401.3375 78.86923 401.29062 79.58798L399.65 79.43173Q399.79062 78.07236 400.55624 77.47861Q401.3375 76.88486 402.49374 76.88486Q403.775 76.88486 404.49374 77.57236Q405.22812 78.25986 405.22812 79.27548Q405.22812 79.85361 405.00937 80.38486Q404.80624 80.90048 404.35312 81.47861Q404.05624 81.85361 403.275 82.57236Q402.49374 83.29111 402.29062 83.52548Q402.0875 83.75986 401.94687 83.97861L405.22812 83.97861ZM412.24374 79.02548L410.65 79.19736Q410.5875 78.71298 410.3375 78.47861Q410.0875 78.24423 409.69687 78.24423Q409.18124 78.24423 408.82187 78.71298Q408.4625 79.18173 408.36874 80.65048Q408.97812 79.93173 409.9 79.93173Q410.93124 79.93173 411.66562 80.71298Q412.4 81.49423 412.4 82.74423Q412.4 84.05673 411.61874 84.85361Q410.85312 85.65048 409.63437 85.65048Q408.3375 85.65048 407.49374 84.65048Q406.66562 83.63486 406.66562 81.33798Q406.66562 78.96298 407.525 77.93173Q408.4 76.88486 409.80624 76.88486Q410.775 76.88486 411.41562 77.43173Q412.05624 77.97861 412.24374 79.02548ZM408.50937 82.61923Q408.50937 83.41611 408.86874 83.85361Q409.24374 84.29111 409.7125 84.29111Q410.18124 84.29111 410.47812 83.93173Q410.79062 83.57236 410.79062 82.75986Q410.79062 81.91611 410.4625 81.54111Q410.13437 81.15048 409.63437 81.15048Q409.16562 81.15048 408.8375 81.52548Q408.50937 81.88486 408.50937 82.61923ZM413.97812 83.86923L415.61874 83.86923L415.61874 85.04111Q415.61874 85.75986 415.49374 86.16611Q415.36874 86.58798 415.025 86.91611Q414.68124 87.24423 414.16562 87.43173L413.8375 86.74423Q414.3375 86.58798 414.54062 86.29111Q414.75937 86.00986 414.775 85.50986L413.97812 85.50986L413.97812 83.86923ZM416.60312 83.22861L418.19687 83.04111Q418.275 83.65048 418.60312 83.97861Q418.94687 84.29111 419.41562 84.29111Q419.93124 84.29111 420.275 83.90048Q420.61874 83.50986 420.61874 82.85361Q420.61874 82.24423 420.275 81.88486Q419.94687 81.50986 419.47812 81.50986Q419.15 81.50986 418.7125 81.63486L418.9 80.29111Q419.57187 80.30673 419.91562 80.00986Q420.275 79.69736 420.275 79.18173Q420.275 78.75986 420.00937 78.50986Q419.75937 78.24423 419.32187 78.24423Q418.9 78.24423 418.60312 78.54111Q418.30624 78.82236 418.24374 79.38486L416.72812 79.13486Q416.88437 78.35361 417.19687 77.88486Q417.525 77.41611 418.0875 77.15048Q418.66562 76.88486 419.36874 76.88486Q420.5875 76.88486 421.32187 77.65048Q421.91562 78.29111 421.91562 79.08798Q421.91562 80.21298 420.68124 80.88486Q421.43124 81.05673 421.86874 81.60361Q422.30624 82.15048 422.30624 82.93173Q422.30624 84.05673 421.47812 84.85361Q420.65 85.65048 419.43124 85.65048Q418.25937 85.65048 417.49374 84.97861Q416.72812 84.30673 416.60312 83.22861ZM423.66562 79.04111Q423.66562 77.88486 424.16562 77.33798Q424.68124 76.77548 425.55624 76.77548Q426.44687 76.77548 426.94687 77.33798Q427.4625 77.88486 427.4625 79.04111Q427.4625 80.19736 426.94687 80.75986Q426.44687 81.30673 425.5875 81.30673Q424.68124 81.30673 424.16562 80.75986Q423.66562 80.19736 423.66562 79.04111ZM424.9625 79.02548Q424.9625 79.86923 425.15 80.15048Q425.29062 80.36923 425.55624 80.36923Q425.82187 80.36923 425.9625 80.15048Q426.15 79.86923 426.15 79.02548Q426.15 78.19736 425.9625 77.91611Q425.82187 77.69736 425.55624 77.69736Q425.29062 77.69736 425.15 77.90048Q424.9625 78.19736 424.9625 79.02548ZM426.80624 85.83798L425.5875 85.83798L430.16562 76.77548L431.35312 76.77548L426.80624 85.83798ZM429.4625 83.58798Q429.4625 82.43173 429.9625 81.86923Q430.47812 81.30673 431.35312 81.30673Q432.24374 81.30673 432.74374 81.86923Q433.25937 82.43173 433.25937 83.58798Q433.25937 84.74423 432.74374 85.30673Q432.24374 85.85361 431.38437 85.85361Q430.47812 85.85361 429.9625 85.30673Q429.4625 84.74423 429.4625 83.58798ZM430.74374 83.57236Q430.74374 84.41611 430.94687 84.69736Q431.0875 84.91611 431.35312 84.91611Q431.61874 84.91611 431.75937 84.69736Q431.94687 84.41611 431.94687 83.57236Q431.94687 82.74423 431.75937 82.44736Q431.61874 82.24423 431.35312 82.24423Q431.0875 82.24423 430.94687 82.44736Q430.74374 82.74423 430.74374 83.57236Z" fill-rule="nonzero"/><path stroke="#757575" stroke-width="1.0" stroke-linecap="butt" d="M434.15 73.00986L354.65 73.00986L311.1226 73.00986" fill-rule="nonzero"/><path fill="#9e9e9e" d="M313.1226 73.00986C313.1226 71.90529 312.22714 71.00986 311.1226 71.00986C310.018 71.00986 309.1226 71.90529 309.1226 73.00986C309.1226 74.114426 310.018 75.00986 311.1226 75.00986C312.22714 75.00986 313.1226 74.114426 313.1226 73.00986" fill-rule="nonzero"/><path fill="#1a1a1a" d="M392.025 157.76625L392.025 149.1725L394.80624 149.1725Q396.38437 149.1725 396.86874 149.2975Q397.60312 149.50063 398.10312 150.15688Q398.60312 150.7975 398.60312 151.81313Q398.60312 152.61 398.30624 153.15688Q398.025 153.68813 397.5875 154.00063Q397.15 154.2975 396.68124 154.40688Q396.07187 154.53188 394.88437 154.53188L393.75937 154.53188L393.75937 157.76625L392.025 157.76625ZM393.75937 150.62563L393.75937 153.06313L394.7125 153.06313Q395.72812 153.06313 396.07187 152.93813Q396.43124 152.7975 396.61874 152.51625Q396.82187 152.21938 396.82187 151.84438Q396.82187 151.37563 396.54062 151.07875Q396.25937 150.76625 395.8375 150.68813Q395.54062 150.62563 394.60312 150.62563L393.75937 150.62563ZM404.025 154.61L404.025 153.15688L407.75937 153.15688L407.75937 156.57875Q407.2125 157.11 406.18124 157.51625Q405.15 157.90688 404.0875 157.90688Q402.74374 157.90688 401.72812 157.34438Q400.72812 156.78188 400.22812 155.735Q399.72812 154.6725 399.72812 153.43813Q399.72812 152.09438 400.29062 151.06313Q400.85312 150.01625 401.93124 149.45375Q402.75937 149.03188 403.99374 149.03188Q405.5875 149.03188 406.47812 149.70375Q407.38437 150.37563 407.65 151.5475L405.93124 151.87563Q405.74374 151.25063 405.24374 150.89125Q404.74374 150.51625 403.99374 150.51625Q402.85312 150.51625 402.18124 151.235Q401.50937 151.95375 401.50937 153.37563Q401.50937 154.90688 402.18124 155.6725Q402.86874 156.4225 403.97812 156.4225Q404.525 156.4225 405.07187 156.21938Q405.61874 156.00063 406.00937 155.70375L406.00937 154.61L404.025 154.61ZM408.99374 157.76625L408.99374 149.1725L411.60312 149.1725L413.15 155.03188L414.69687 149.1725L417.29062 149.1725L417.29062 157.76625L415.68124 157.76625L415.68124 151.00063L413.97812 157.76625L412.30624 157.76625L410.61874 151.00063L410.61874 157.76625L408.99374 157.76625ZM419.04062 157.76625L419.04062 149.1725L420.72812 149.1725L424.24374 154.90688L424.24374 149.1725L425.85312 149.1725L425.85312 157.76625L424.11874 157.76625L420.65 152.15688L420.65 157.76625L419.04062 157.76625ZM427.60312 155.485L429.19687 155.2975Q429.275 155.90688 429.60312 156.235Q429.94687 156.5475 430.41562 156.5475Q430.93124 156.5475 431.275 156.15688Q431.61874 155.76625 431.61874 155.11Q431.61874 154.50063 431.275 154.14125Q430.94687 153.76625 430.47812 153.76625Q430.15 153.76625 429.7125 153.89125L429.9 152.5475Q430.57187 152.56313 430.91562 152.26625Q431.275 151.95375 431.275 151.43813Q431.275 151.01625 431.00937 150.76625Q430.75937 150.50063 430.32187 150.50063Q429.9 150.50063 429.60312 150.7975Q429.30624 151.07875 429.24374 151.64125L427.72812 151.39125Q427.88437 150.61 428.19687 150.14125Q428.525 149.6725 429.0875 149.40688Q429.66562 149.14125 430.36874 149.14125Q431.5875 149.14125 432.32187 149.90688Q432.91562 150.5475 432.91562 151.34438Q432.91562 152.46938 431.68124 153.14125Q432.43124 153.31313 432.86874 153.86Q433.30624 154.40688 433.30624 155.18813Q433.30624 156.31313 432.47812 157.11Q431.65 157.90688 430.43124 157.90688Q429.25937 157.90688 428.49374 157.235Q427.72812 156.56313 427.60312 155.485Z" fill-rule="nonzero"/><path fill="#9e9e9e" d="M403.86874 174.76625L402.22812 174.76625L402.22812 168.56313Q401.32187 169.40688 400.10312 169.81313L400.10312 168.31313Q400.74374 168.11 401.49374 167.51625Q402.25937 166.9225 402.54062 166.14125L403.86874 166.14125L403.86874 174.76625ZM406.68124 172.56313L408.32187 172.39125Q408.4 172.93813 408.74374 173.26625Q409.0875 173.59438 409.54062 173.59438Q410.05624 173.59438 410.41562 173.1725Q410.775 172.75063 410.775 171.90688Q410.775 171.12563 410.41562 170.735Q410.05624 170.32875 409.49374 170.32875Q408.775 170.32875 408.2125 170.95375L406.88437 170.76625L407.72812 166.2975L412.0875 166.2975L412.0875 167.82875L408.97812 167.82875L408.7125 169.2975Q409.275 169.01625 409.8375 169.01625Q410.93124 169.01625 411.69687 169.81313Q412.4625 170.61 412.4625 171.87563Q412.4625 172.93813 411.85312 173.78188Q411.00937 174.90688 409.525 174.90688Q408.3375 174.90688 407.5875 174.28188Q406.8375 173.64125 406.68124 172.56313ZM413.97812 173.12563L415.61874 173.12563L415.61874 174.2975Q415.61874 175.01625 415.49374 175.4225Q415.36874 175.84438 415.025 176.1725Q414.68124 176.50063 414.16562 176.68813L413.8375 176.00063Q414.3375 175.84438 414.54062 175.5475Q414.75937 175.26625 414.775 174.76625L413.97812 174.76625L413.97812 173.12563ZM418.07187 170.12563Q417.43124 169.86 417.13437 169.39125Q416.85312 168.9225 416.85312 168.36Q416.85312 167.39125 417.525 166.76625Q418.19687 166.14125 419.43124 166.14125Q420.65 166.14125 421.32187 166.76625Q422.00937 167.39125 422.00937 168.36Q422.00937 168.95375 421.69687 169.4225Q421.38437 169.89125 420.82187 170.12563Q421.54062 170.4225 421.91562 170.96938Q422.29062 171.51625 422.29062 172.235Q422.29062 173.4225 421.525 174.1725Q420.775 174.9225 419.50937 174.9225Q418.3375 174.9225 417.55624 174.2975Q416.63437 173.57875 416.63437 172.31313Q416.63437 171.61 416.97812 171.03188Q417.32187 170.45375 418.07187 170.12563ZM418.41562 168.46938Q418.41562 168.96938 418.68124 169.25063Q418.9625 169.51625 419.43124 169.51625Q419.9 169.51625 420.18124 169.235Q420.4625 168.95375 420.4625 168.46938Q420.4625 168.00063 420.18124 167.735Q419.9 167.45375 419.44687 167.45375Q418.97812 167.45375 418.69687 167.735Q418.41562 168.01625 418.41562 168.46938ZM418.25937 172.15688Q418.25937 172.82875 418.60312 173.21938Q418.9625 173.59438 419.47812 173.59438Q419.99374 173.59438 420.32187 173.235Q420.65 172.86 420.65 172.1725Q420.65 171.56313 420.30624 171.20375Q419.97812 170.82875 419.4625 170.82875Q418.85312 170.82875 418.55624 171.25063Q418.25937 171.6725 418.25937 172.15688ZM423.66562 168.2975Q423.66562 167.14125 424.16562 166.59438Q424.68124 166.03188 425.55624 166.03188Q426.44687 166.03188 426.94687 166.59438Q427.4625 167.14125 427.4625 168.2975Q427.4625 169.45375 426.94687 170.01625Q426.44687 170.56313 425.5875 170.56313Q424.68124 170.56313 424.16562 170.01625Q423.66562 169.45375 423.66562 168.2975ZM424.9625 168.28188Q424.9625 169.12563 425.15 169.40688Q425.29062 169.62563 425.55624 169.62563Q425.82187 169.62563 425.9625 169.40688Q426.15 169.12563 426.15 168.28188Q426.15 167.45375 425.9625 167.1725Q425.82187 166.95375 425.55624 166.95375Q425.29062 166.95375 425.15 167.15688Q424.9625 167.45375 424.9625 168.28188ZM426.80624 175.09438L425.5875 175.09438L430.16562 166.03188L431.35312 166.03188L426.80624 175.09438ZM429.4625 172.84438Q429.4625 171.68813 429.9625 171.12563Q430.47812 170.56313 431.35312 170.56313Q432.24374 170.56313 432.74374 171.12563Q433.25937 171.68813 433.25937 172.84438Q433.25937 174.00063 432.74374 174.56313Q432.24374 175.11 431.38437 175.11Q430.47812 175.11 429.9625 174.56313Q429.4625 174.00063 429.4625 172.84438ZM430.74374 172.82875Q430.74374 173.6725 430.94687 173.95375Q431.0875 174.1725 431.35312 174.1725Q431.61874 174.1725 431.75937 173.95375Q431.94687 173.6725 431.94687 172.82875Q431.94687 172.00063 431.75937 171.70375Q431.61874 171.50063 431.35312 171.50063Q431.0875 171.50063 430.94687 171.70375Q430.74374 172.00063 430.74374 172.82875Z" fill-rule="nonzero"/><path stroke="#757575" stroke-width="1.0" stroke-linecap="butt" d="M434.15 162.26625L354.65 162.26625L323.13516 174.48901" fill-rule="nonzero"/><path fill="#9e9e9e" d="M325.13516 174.48901C325.13516 173.38445 324.23975 172.48901 323.13516 172.48901C322.03058 172.48901 321.13516 173.38445 321.13516 174.48901C321.13516 175.59358 322.03058 176.48901 323.13516 176.48901C324.23975 176.48901 325.13516 175.59358 325.13516 174.48901" fill-rule="nonzero"/><path fill="#1a1a1a" d="M397.525 185.61L399.19687 186.14125Q398.82187 187.5475 397.91562 188.235Q397.00937 188.90688 395.63437 188.90688Q393.91562 188.90688 392.80624 187.75063Q391.7125 186.57875 391.7125 184.5475Q391.7125 182.40688 392.82187 181.21938Q393.93124 180.03188 395.74374 180.03188Q397.32187 180.03188 398.30624 180.95375Q398.88437 181.51625 399.18124 182.5475L397.4625 182.95375Q397.30624 182.28188 396.82187 181.90688Q396.3375 181.51625 395.65 181.51625Q394.69687 181.51625 394.10312 182.20375Q393.50937 182.87563 393.50937 184.4225Q393.50937 186.0475 394.0875 186.735Q394.68124 187.4225 395.61874 187.4225Q396.30624 187.4225 396.80624 186.985Q397.30624 186.5475 397.525 185.61ZM406.525 185.61L408.19687 186.14125Q407.82187 187.5475 406.91562 188.235Q406.00937 188.90688 404.63437 188.90688Q402.91562 188.90688 401.80624 187.75063Q400.7125 186.57875 400.7125 184.5475Q400.7125 182.40688 401.82187 181.21938Q402.93124 180.03188 404.74374 180.03188Q406.32187 180.03188 407.30624 180.95375Q407.88437 181.51625 408.18124 182.5475L406.4625 182.95375Q406.30624 182.28188 405.82187 181.90688Q405.3375 181.51625 404.65 181.51625Q403.69687 181.51625 403.10312 182.20375Q402.50937 182.87563 402.50937 184.4225Q402.50937 186.0475 403.0875 186.735Q403.68124 187.4225 404.61874 187.4225Q405.30624 187.4225 405.80624 186.985Q406.30624 186.5475 406.525 185.61ZM410.025 188.76625L410.025 180.1725L413.68124 180.1725Q415.05624 180.1725 415.68124 180.40688Q416.30624 180.64125 416.68124 181.235Q417.05624 181.82875 417.05624 182.57875Q417.05624 183.5475 416.47812 184.18813Q415.91562 184.81313 414.79062 184.96938Q415.35312 185.2975 415.7125 185.70375Q416.0875 186.09438 416.69687 187.09438L417.75937 188.76625L415.68124 188.76625L414.43124 186.89125Q413.75937 185.89125 413.50937 185.64125Q413.25937 185.37563 412.97812 185.28188Q412.7125 185.1725 412.11874 185.1725L411.75937 185.1725L411.75937 188.76625L410.025 188.76625ZM411.75937 183.81313L413.04062 183.81313Q414.29062 183.81313 414.60312 183.70375Q414.91562 183.59438 415.0875 183.34438Q415.275 183.07875 415.275 182.68813Q415.275 182.26625 415.04062 182.00063Q414.80624 181.735 414.38437 181.65688Q414.16562 181.62563 413.11874 181.62563L411.75937 181.62563L411.75937 183.81313ZM418.66562 184.51625Q418.66562 183.20375 419.07187 182.31313Q419.35312 181.65688 419.85312 181.14125Q420.36874 180.62563 420.97812 180.37563Q421.775 180.03188 422.82187 180.03188Q424.72812 180.03188 425.86874 181.21938Q427.00937 182.39125 427.00937 184.485Q427.00937 186.56313 425.86874 187.735Q424.74374 188.90688 422.85312 188.90688Q420.93124 188.90688 419.79062 187.75063Q418.66562 186.57875 418.66562 184.51625ZM420.4625 184.46938Q420.4625 185.9225 421.13437 186.6725Q421.80624 187.4225 422.8375 187.4225Q423.88437 187.4225 424.54062 186.68813Q425.2125 185.93813 425.2125 184.43813Q425.2125 182.96938 424.55624 182.25063Q423.91562 181.51625 422.8375 181.51625Q421.775 181.51625 421.11874 182.25063Q420.4625 182.985 420.4625 184.46938ZM427.60312 186.485L429.19687 186.2975Q429.275 186.90688 429.60312 187.235Q429.94687 187.5475 430.41562 187.5475Q430.93124 187.5475 431.275 187.15688Q431.61874 186.76625 431.61874 186.11Q431.61874 185.50063 431.275 185.14125Q430.94687 184.76625 430.47812 184.76625Q430.15 184.76625 429.7125 184.89125L429.9 183.5475Q430.57187 183.56313 430.91562 183.26625Q431.275 182.95375 431.275 182.43813Q431.275 182.01625 431.00937 181.76625Q430.75937 181.50063 430.32187 181.50063Q429.9 181.50063 429.60312 181.7975Q429.30624 182.07875 429.24374 182.64125L427.72812 182.39125Q427.88437 181.61 428.19687 181.14125Q428.525 180.6725 429.0875 180.40688Q429.66562 180.14125 430.36874 180.14125Q431.5875 180.14125 432.32187 180.90688Q432.91562 181.5475 432.91562 182.34438Q432.91562 183.46938 431.68124 184.14125Q432.43124 184.31313 432.86874 184.86Q433.30624 185.40688 433.30624 186.18813Q433.30624 187.31313 432.47812 188.11Q431.65 188.90688 430.43124 188.90688Q429.25937 188.90688 428.49374 188.235Q427.72812 187.56313 427.60312 186.485Z" fill-rule="nonzero"/><path fill="#9e9e9e" d="M406.68124 203.56313L408.32187 203.39125Q408.4 203.93813 408.74374 204.26625Q409.0875 204.59438 409.54062 204.59438Q410.05624 204.59438 410.41562 204.1725Q410.775 203.75063 410.775 202.90688Q410.775 202.12563 410.41562 201.735Q410.05624 201.32875 409.49374 201.32875Q408.775 201.32875 408.2125 201.95375L406.88437 201.76625L407.72812 197.2975L412.0875 197.2975L412.0875 198.82875L408.97812 198.82875L408.7125 200.2975Q409.275 200.01625 409.8375 200.01625Q410.93124 200.01625 411.69687 200.81313Q412.4625 201.61 412.4625 202.87563Q412.4625 203.93813 411.85312 204.78188Q411.00937 205.90688 409.525 205.90688Q408.3375 205.90688 407.5875 205.28188Q406.8375 204.64125 406.68124 203.56313ZM413.97812 204.12563L415.61874 204.12563L415.61874 205.2975Q415.61874 206.01625 415.49374 206.4225Q415.36874 206.84438 415.025 207.1725Q414.68124 207.50063 414.16562 207.68813L413.8375 207.00063Q414.3375 206.84438 414.54062 206.5475Q414.75937 206.26625 414.775 205.76625L413.97812 205.76625L413.97812 204.12563ZM416.60312 203.485L418.19687 203.2975Q418.275 203.90688 418.60312 204.235Q418.94687 204.5475 419.41562 204.5475Q419.93124 204.5475 420.275 204.15688Q420.61874 203.76625 420.61874 203.11Q420.61874 202.50063 420.275 202.14125Q419.94687 201.76625 419.47812 201.76625Q419.15 201.76625 418.7125 201.89125L418.9 200.5475Q419.57187 200.56313 419.91562 200.26625Q420.275 199.95375 420.275 199.43813Q420.275 199.01625 420.00937 198.76625Q419.75937 198.50063 419.32187 198.50063Q418.9 198.50063 418.60312 198.7975Q418.30624 199.07875 418.24374 199.64125L416.72812 199.39125Q416.88437 198.61 417.19687 198.14125Q417.525 197.6725 418.0875 197.40688Q418.66562 197.14125 419.36874 197.14125Q420.5875 197.14125 421.32187 197.90688Q421.91562 198.5475 421.91562 199.34438Q421.91562 200.46938 420.68124 201.14125Q421.43124 201.31313 421.86874 201.86Q422.30624 202.40688 422.30624 203.18813Q422.30624 204.31313 421.47812 205.11Q420.65 205.90688 419.43124 205.90688Q418.25937 205.90688 417.49374 205.235Q416.72812 204.56313 416.60312 203.485ZM423.66562 199.2975Q423.66562 198.14125 424.16562 197.59438Q424.68124 197.03188 425.55624 197.03188Q426.44687 197.03188 426.94687 197.59438Q427.4625 198.14125 427.4625 199.2975Q427.4625 200.45375 426.94687 201.01625Q426.44687 201.56313 425.5875 201.56313Q424.68124 201.56313 424.16562 201.01625Q423.66562 200.45375 423.66562 199.2975ZM424.9625 199.28188Q424.9625 200.12563 425.15 200.40688Q425.29062 200.62563 425.55624 200.62563Q425.82187 200.62563 425.9625 200.40688Q426.15 200.12563 426.15 199.28188Q426.15 198.45375 425.9625 198.1725Q425.82187 197.95375 425.55624 197.95375Q425.29062 197.95375 425.15 198.15688Q424.9625 198.45375 424.9625 199.28188ZM426.80624 206.09438L425.5875 206.09438L430.16562 197.03188L431.35312 197.03188L426.80624 206.09438ZM429.4625 203.84438Q429.4625 202.68813 429.9625 202.12563Q430.47812 201.56313 431.35312 201.56313Q432.24374 201.56313 432.74374 202.12563Q433.25937 202.68813 433.25937 203.84438Q433.25937 205.00063 432.74374 205.56313Q432.24374 206.11 431.38437 206.11Q430.47812 206.11 429.9625 205.56313Q429.4625 205.00063 429.4625 203.84438ZM430.74374 203.82875Q430.74374 204.6725 430.94687 204.95375Q431.0875 205.1725 431.35312 205.1725Q431.61874 205.1725 431.75937 204.95375Q431.94687 204.6725 431.94687 203.82875Q431.94687 203.00063 431.75937 202.70375Q431.61874 202.50063 431.35312 202.50063Q431.0875 202.50063 430.94687 202.70375Q430.74374 203.00063 430.74374 203.82875Z" fill-rule="nonzero"/><path stroke="#757575" stroke-width="1.0" stroke-linecap="butt" d="M434.15 193.26625L354.65 193.26625L262.4501 207.55217" fill-rule="nonzero"/><path fill="#9e9e9e" d="M264.4501 207.55217C264.4501 206.4476 263.55466 205.55217 262.4501 205.55217C261.34552 205.55217 260.4501 206.4476 260.4501 207.55217C260.4501 208.65674 261.34552 209.55217 262.4501 209.55217C263.55466 209.55217 264.4501 208.65674 264.4501 207.55217" fill-rule="nonzero"/><path fill="#1a1a1a" d="M394.025 219.76625L394.025 211.1725L395.75937 211.1725L395.75937 214.56313L399.16562 214.56313L399.16562 211.1725L400.9 211.1725L400.9 219.76625L399.16562 219.76625L399.16562 216.01625L395.75937 216.01625L395.75937 219.76625L394.025 219.76625ZM410.775 219.76625L408.88437 219.76625L408.13437 217.81313L404.69687 217.81313L403.99374 219.76625L402.15 219.76625L405.49374 211.1725L407.3375 211.1725L410.775 219.76625ZM407.57187 216.36L406.4 213.1725L405.22812 216.36L407.57187 216.36ZM412.025 219.76625L412.025 211.1725L414.80624 211.1725Q416.38437 211.1725 416.86874 211.2975Q417.60312 211.50063 418.10312 212.15688Q418.60312 212.7975 418.60312 213.81313Q418.60312 214.61 418.30624 215.15688Q418.025 215.68813 417.5875 216.00063Q417.15 216.2975 416.68124 216.40688Q416.07187 216.53188 414.88437 216.53188L413.75937 216.53188L413.75937 219.76625L412.025 219.76625ZM413.75937 212.62563L413.75937 215.06313L414.7125 215.06313Q415.72812 215.06313 416.07187 214.93813Q416.43124 214.7975 416.61874 214.51625Q416.82187 214.21938 416.82187 213.84438Q416.82187 213.37563 416.54062 213.07875Q416.25937 212.76625 415.8375 212.68813Q415.54062 212.62563 414.60312 212.62563L413.75937 212.62563ZM422.2125 219.76625L419.15 211.1725L421.025 211.1725L423.19687 217.53188L425.30624 211.1725L427.15 211.1725L424.07187 219.76625L422.2125 219.76625ZM427.60312 217.485L429.19687 217.2975Q429.275 217.90688 429.60312 218.235Q429.94687 218.5475 430.41562 218.5475Q430.93124 218.5475 431.275 218.15688Q431.61874 217.76625 431.61874 217.11Q431.61874 216.50063 431.275 216.14125Q430.94687 215.76625 430.47812 215.76625Q430.15 215.76625 429.7125 215.89125L429.9 214.5475Q430.57187 214.56313 430.91562 214.26625Q431.275 213.95375 431.275 213.43813Q431.275 213.01625 431.00937 212.76625Q430.75937 212.50063 430.32187 212.50063Q429.9 212.50063 429.60312 212.7975Q429.30624 213.07875 429.24374 213.64125L427.72812 213.39125Q427.88437 212.61 428.19687 212.14125Q428.525 211.6725 429.0875 211.40688Q429.66562 211.14125 430.36874 211.14125Q431.5875 211.14125 432.32187 211.90688Q432.91562 212.5475 432.91562 213.34438Q432.91562 214.46938 431.68124 215.14125Q432.43124 215.31313 432.86874 215.86Q433.30624 216.40688 433.30624 217.18813Q433.30624 218.31313 432.47812 219.11Q431.65 219.90688 430.43124 219.90688Q429.25937 219.90688 428.49374 219.235Q427.72812 218.56313 427.60312 217.485Z" fill-rule="nonzero"/><path fill="#9e9e9e" d="M406.68124 234.56313L408.32187 234.39125Q408.4 234.93813 408.74374 235.26625Q409.0875 235.59438 409.54062 235.59438Q410.05624 235.59438 410.41562 235.1725Q410.775 234.75063 410.775 233.90688Q410.775 233.12563 410.41562 232.735Q410.05624 232.32875 409.49374 232.32875Q408.775 232.32875 408.2125 232.95375L406.88437 232.76625L407.72812 228.2975L412.0875 228.2975L412.0875 229.82875L408.97812 229.82875L408.7125 231.2975Q409.275 231.01625 409.8375 231.01625Q410.93124 231.01625 411.69687 231.81313Q412.4625 232.61 412.4625 233.87563Q412.4625 234.93813 411.85312 235.78188Q411.00937 236.90688 409.525 236.90688Q408.3375 236.90688 407.5875 236.28188Q406.8375 235.64125 406.68124 234.56313ZM413.97812 235.12563L415.61874 235.12563L415.61874 236.2975Q415.61874 237.01625 415.49374 237.4225Q415.36874 237.84438 415.025 238.1725Q414.68124 238.50063 414.16562 238.68813L413.8375 238.00063Q414.3375 237.84438 414.54062 237.5475Q414.75937 237.26625 414.775 236.76625L413.97812 236.76625L413.97812 235.12563ZM416.60312 234.485L418.19687 234.2975Q418.275 234.90688 418.60312 235.235Q418.94687 235.5475 419.41562 235.5475Q419.93124 235.5475 420.275 235.15688Q420.61874 234.76625 420.61874 234.11Q420.61874 233.50063 420.275 233.14125Q419.94687 232.76625 419.47812 232.76625Q419.15 232.76625 418.7125 232.89125L418.9 231.5475Q419.57187 231.56313 419.91562 231.26625Q420.275 230.95375 420.275 230.43813Q420.275 230.01625 420.00937 229.76625Q419.75937 229.50063 419.32187 229.50063Q418.9 229.50063 418.60312 229.7975Q418.30624 230.07875 418.24374 230.64125L416.72812 230.39125Q416.88437 229.61 417.19687 229.14125Q417.525 228.6725 418.0875 228.40688Q418.66562 228.14125 419.36874 228.14125Q420.5875 228.14125 421.32187 228.90688Q421.91562 229.5475 421.91562 230.34438Q421.91562 231.46938 420.68124 232.14125Q421.43124 232.31313 421.86874 232.86Q422.30624 233.40688 422.30624 234.18813Q422.30624 235.31313 421.47812 236.11Q420.65 236.90688 419.43124 236.90688Q418.25937 236.90688 417.49374 236.235Q416.72812 235.56313 416.60312 234.485ZM423.66562 230.2975Q423.66562 229.14125 424.16562 228.59438Q424.68124 228.03188 425.55624 228.03188Q426.44687 228.03188 426.94687 228.59438Q427.4625 229.14125 427.4625 230.2975Q427.4625 231.45375 426.94687 232.01625Q426.44687 232.56313 425.5875 232.56313Q424.68124 232.56313 424.16562 232.01625Q423.66562 231.45375 423.66562 230.2975ZM424.9625 230.28188Q424.9625 231.12563 425.15 231.40688Q425.29062 231.62563 425.55624 231.62563Q425.82187 231.62563 425.9625 231.40688Q426.15 231.12563 426.15 230.28188Q426.15 229.45375 425.9625 229.1725Q425.82187 228.95375 425.55624 228.95375Q425.29062 228.95375 425.15 229.15688Q424.9625 229.45375 424.9625 230.28188ZM426.80624 237.09438L425.5875 237.09438L430.16562 228.03188L431.35312 228.03188L426.80624 237.09438ZM429.4625 234.84438Q429.4625 233.68813 429.9625 233.12563Q430.47812 232.56313 431.35312 232.56313Q432.24374 232.56313 432.74374 233.12563Q433.25937 233.68813 433.25937 234.84438Q433.25937 236.00063 432.74374 236.56313Q432.24374 237.11 431.38437 237.11Q430.47812 237.11 429.9625 236.56313Q429.4625 236.00063 429.4625 234.84438ZM430.74374 234.82875Q430.74374 235.6725 430.94687 235.95375Q431.0875 236.1725 431.35312 236.1725Q431.61874 236.1725 431.75937 235.95375Q431.94687 235.6725 431.94687 234.82875Q431.94687 234.00063 431.75937 233.70375Q431.61874 233.50063 431.35312 233.50063Q431.0875 233.50063 430.94687 233.70375Q430.74374 234.00063 430.74374 234.82875Z" fill-rule="nonzero"/><path stroke="#757575" stroke-width="1.0" stroke-linecap="butt" d="M434.15 224.26625L354.65 224.26625L224.0 212.0435" fill-rule="nonzero"/><path fill="#9e9e9e" d="M226.0 212.0435C226.0 210.93893 225.10457 210.0435 224.0 210.0435C222.89543 210.0435 222.0 210.93893 222.0 212.0435C222.0 213.14807 222.89543 214.0435 224.0 214.0435C225.10457 214.0435 226.0 213.14807 226.0 212.0435" fill-rule="nonzero"/></svg>